<svg width="283" height="61" viewBox="0 0 283 61" fill="none" xmlns="http://www.w3.org/2000/svg">
<rect x="31" y="22" width="235" height="10" rx="5" fill="#3D84EE"/>
<g filter="url(#filter0_d)">
<circle cx="30.5" cy="26.5" r="17.5" fill="white"/>
</g>
<path d="M30.4279 18C27.438 18 24.8045 19.5293 23.2666 21.8482C22.9657 22.3018 22.7088 22.783 22.4992 23.2852C22.2882 23.7911 22.1266 24.3161 22.0166 24.853C22.0151 24.8583 22.0135 24.8641 22.0124 24.8695V24.87H22.0134C22.011 24.8826 22.0092 24.8956 22.0092 24.9088C22.0092 25.0179 22.0978 25.106 22.2069 25.106H23.9224C24.0106 25.1061 24.091 25.0466 24.1137 24.9572C24.6094 23.0321 25.9634 21.4511 27.7435 20.6456C28.0926 20.4874 28.4551 20.3606 28.8266 20.2666C29.3499 20.1345 29.8876 20.0677 30.4273 20.0679V20.0689H30.4279V20.0679C30.861 20.0679 31.2862 20.1109 31.6996 20.1928C31.777 20.2081 31.8566 20.2256 31.9377 20.2449C32.0164 20.2634 32.0947 20.2834 32.1726 20.3049H32.1731C32.2154 20.3167 32.2605 20.3141 32.3011 20.2975C32.3417 20.2808 32.3756 20.2511 32.3974 20.213L33.2504 18.7355C33.2592 18.7219 33.2663 18.707 33.2717 18.6909C33.3063 18.5873 33.2508 18.4753 33.1473 18.4406C32.7864 18.3201 32.4178 18.2239 32.044 18.1525C31.9707 18.1386 31.8971 18.1257 31.8234 18.1137C31.3706 18.0396 30.9048 18.0011 30.4289 18.0011V18H30.4279ZM35.9873 19.9366C35.9518 19.9358 35.9167 19.9446 35.8857 19.9621C35.8547 19.9796 35.8291 20.0051 35.8114 20.036L34.9595 21.5113C34.9087 21.5886 34.9176 21.6932 34.9861 21.7605C35.4903 22.2558 35.9144 22.8323 36.2371 23.4686C36.3 23.5926 36.3588 23.7187 36.4136 23.8465C36.7513 24.6343 36.9386 25.5016 36.9386 26.4118H36.9376V26.4123C36.9376 27.7243 36.5504 28.9448 35.8842 29.9666C35.7547 30.1651 35.6146 30.3563 35.4644 30.5395C35.3165 30.7202 35.1592 30.8928 34.993 31.0566L34.9924 31.0572L34.9861 31.063L34.9866 31.0635C34.9239 31.125 34.9079 31.223 34.9536 31.3027L35.8071 32.7817C35.8144 32.7955 35.8235 32.8089 35.8343 32.8211C35.9066 32.9028 36.0316 32.9104 36.1133 32.8381C37.1035 31.9599 37.8894 30.8567 38.3905 29.609C38.4886 29.3651 38.5753 29.1168 38.6504 28.865C38.8815 28.0888 39.0059 27.2656 39.0059 26.4123C39.0059 24.571 38.4261 22.8653 37.4397 21.4677C37.248 21.1963 37.0407 20.9362 36.819 20.6886C36.5976 20.4413 36.3621 20.2069 36.1138 19.9866H36.1132C36.1034 19.9778 36.0927 19.9695 36.0808 19.9627C36.0523 19.9463 36.0202 19.9373 35.9873 19.9366L35.9873 19.9366ZM22.1978 27.8929V27.894C22.1851 27.894 22.172 27.8951 22.159 27.8977C22.0521 27.9191 21.9825 28.023 22.0039 28.1299C22.5774 30.9514 24.5346 33.2713 27.1355 34.349C27.6469 34.5607 28.1777 34.7222 28.7203 34.831C29.2693 34.9412 29.8372 34.9989 30.4183 34.9989V35H30.4188C31.1025 35 31.7679 34.9196 32.4059 34.7683C32.5296 34.739 32.6525 34.7069 32.7747 34.6721C32.8881 34.6398 33.0065 34.6026 33.1298 34.5616C33.1453 34.5572 33.1603 34.551 33.1744 34.543C33.2689 34.4882 33.3009 34.367 33.2461 34.2725L32.3884 32.7865C32.3444 32.7104 32.2533 32.6706 32.1646 32.6951C31.9304 32.7601 31.6926 32.8119 31.4525 32.8503C31.408 32.8574 31.3608 32.8642 31.3111 32.871C31.0158 32.9116 30.718 32.932 30.4199 32.9321V32.9311H30.4188C28.2361 32.9311 26.3038 31.8582 25.1208 30.2117C25.1186 30.2082 25.1163 30.2049 25.1139 30.2016C24.8825 29.8783 24.6811 29.5351 24.5128 29.1764C24.3458 28.8201 24.2097 28.4467 24.1089 28.0598C24.0939 27.9652 24.0123 27.8929 23.9134 27.8929H22.1979L22.1978 27.8929Z" fill="#2770DD"/>
<circle cx="265.5" cy="26.5" r="16.5" fill="#2770DD" stroke="white" stroke-width="2"/>
<path d="M262.188 29.978C263.373 29.026 264.302 28.2467 264.974 27.64C265.646 27.024 266.21 26.3847 266.668 25.722C267.134 25.05 267.368 24.392 267.368 23.748C267.368 23.1413 267.218 22.6653 266.92 22.32C266.63 21.9653 266.159 21.788 265.506 21.788C264.871 21.788 264.376 21.9887 264.022 22.39C263.676 22.782 263.49 23.3093 263.462 23.972H262.23C262.267 22.9267 262.584 22.1193 263.182 21.55C263.779 20.9807 264.549 20.696 265.492 20.696C266.453 20.696 267.214 20.962 267.774 21.494C268.343 22.026 268.628 22.7587 268.628 23.692C268.628 24.4667 268.394 25.2227 267.928 25.96C267.47 26.688 266.948 27.332 266.36 27.892C265.772 28.4427 265.02 29.0867 264.106 29.824H268.922V30.888H262.188V29.978Z" fill="white"/>
<defs>
<filter id="filter0_d" x="0" y="0" width="61" height="61" filterUnits="userSpaceOnUse" color-interpolation-filters="sRGB">
<feFlood flood-opacity="0" result="BackgroundImageFix"/>
<feColorMatrix in="SourceAlpha" type="matrix" values="0 0 0 0 0 0 0 0 0 0 0 0 0 0 0 0 0 0 127 0"/>
<feMorphology radius="2" operator="erode" in="SourceAlpha" result="effect1_dropShadow"/>
<feOffset dy="4"/>
<feGaussianBlur stdDeviation="7.5"/>
<feColorMatrix type="matrix" values="0 0 0 0 0 0 0 0 0 0 0 0 0 0 0 0 0 0 0.25 0"/>
<feBlend mode="normal" in2="BackgroundImageFix" result="effect1_dropShadow"/>
<feBlend mode="normal" in="SourceGraphic" in2="effect1_dropShadow" result="shape"/>
</filter>
</defs>
</svg>
