<svg width="32" height="26" viewBox="0 0 32 26" fill="none" xmlns="http://www.w3.org/2000/svg">
<path id="bathub" d="M31 12.6429C31 11.3196 29.925 10.243 28.6034 10.243H5.88657V3.55088C5.88657 2.88048 6.43124 2.33509 7.10076 2.33509C7.77029 2.33509 8.31495 2.88048 8.31495 3.55088C8.31495 3.91956 8.61343 4.21843 8.98162 4.21843C9.34981 4.21843 9.64829 3.91956 9.64829 3.55088C9.64829 2.14436 8.50543 1 7.10076 1C5.6961 1 4.55324 2.14436 4.55324 3.55088V10.2431H3.39657C2.07505 10.243 1 11.3196 1 12.6429C1 13.7346 1.73219 14.6578 2.73076 14.9474C2.73686 16.9348 2.80695 18.9326 3.60762 20.4104C4.23543 21.5692 5.23638 22.3292 6.68267 22.7246L5.99362 24.0182C5.82038 24.3435 5.94333 24.7479 6.26819 24.9214C6.3681 24.9748 6.47543 25 6.58133 25C6.81962 25 7.05019 24.8717 7.17019 24.6465L8.05905 22.9776C8.51133 23.0267 8.99552 23.0515 9.51438 23.0515H22.4857C23.0047 23.0515 23.4888 23.0266 23.941 22.9776L24.8299 24.6465C24.9499 24.8717 25.1805 25 25.4188 25C25.5246 25 25.632 24.9747 25.7319 24.9214C26.0568 24.748 26.1797 24.3436 26.0065 24.0182L25.3175 22.7246C26.7637 22.3292 27.7647 21.5693 28.3925 20.4104C29.1931 18.9326 29.2632 16.9348 29.2693 14.9474C30.2677 14.6578 31 13.7347 31 12.6429V12.6429ZM22.4857 21.7165H9.51429C4.55162 21.7165 4.09714 19.4311 4.06533 15.0425H27.9346C27.9028 19.4311 27.4484 21.7165 22.4857 21.7165V21.7165ZM28.6034 13.7073H3.39657C2.81029 13.7073 2.33333 13.2298 2.33333 12.6429C2.33333 12.0558 2.81029 11.5781 3.39657 11.5781H28.6034C29.1897 11.5781 29.6667 12.0558 29.6667 12.6429C29.6667 13.2299 29.1897 13.7073 28.6034 13.7073Z" fill="#07439A" stroke="#07439A" stroke-width="0.3"/>
</svg>
