<svg width="16" height="16" viewBox="0 0 16 16" fill="none" xmlns="http://www.w3.org/2000/svg">
<path d="M11.6536 16H11.676C12.0984 16 12.4976 15.8336 12.8 15.5312L14.9697 13.3615C15.0441 13.2872 15.1031 13.1991 15.1433 13.102C15.1836 13.005 15.2043 12.9009 15.2043 12.7958C15.2043 12.6908 15.1836 12.5867 15.1433 12.4897C15.1031 12.3926 15.0441 12.3044 14.9697 12.2302L11.7696 9.03005C11.6953 8.95569 11.6072 8.8967 11.5101 8.85645C11.413 8.8162 11.309 8.79548 11.2039 8.79548C11.0989 8.79548 10.9948 8.8162 10.8978 8.85645C10.8007 8.8967 10.7125 8.95569 10.6383 9.03005L9.36304 10.3053C8.77181 10.1293 7.66856 9.72929 6.96932 9.03005C6.27009 8.33082 5.87007 7.22756 5.69406 6.63633L6.96932 5.36107C7.04368 5.28683 7.10267 5.19867 7.14292 5.10161C7.18318 5.00455 7.20389 4.90051 7.20389 4.79544C7.20389 4.69037 7.18318 4.58633 7.14292 4.48927C7.10267 4.39221 7.04368 4.30405 6.96932 4.22981L3.76916 1.02965C3.61621 0.885286 3.41385 0.804867 3.20353 0.804867C2.99321 0.804867 2.79085 0.885286 2.6379 1.02965L0.468997 3.19936C0.164981 3.50338 -0.00622708 3.921 0.000173245 4.34742C0.0185742 5.48667 0.320189 9.44367 3.43874 12.5622C6.5573 15.6808 10.5143 15.9816 11.6536 16ZM3.20433 2.72654L5.27324 4.79544L4.23878 5.82989C4.14465 5.92377 4.07549 6.03971 4.03763 6.16715C3.99976 6.29459 3.99438 6.42948 4.02197 6.55953C4.04117 6.65153 4.5108 8.83324 5.83886 10.1613C7.16693 11.4894 9.34864 11.959 9.44064 11.9782C9.57069 12.0059 9.70562 12.0006 9.83309 11.9628C9.96055 11.9249 10.0765 11.8556 10.1703 11.7614L11.2047 10.7269L13.2736 12.7958L11.6688 14.3999C10.6703 14.3831 7.25414 14.1151 4.57 11.4302C1.87707 8.73724 1.61625 5.30907 1.60025 4.33062L3.20433 2.72654ZM14.4001 7.19956H16.0002C16.0002 3.09535 12.9016 0 8.79181 0V1.60008C12.0416 1.60008 14.4001 3.9546 14.4001 7.19956Z" fill="#07439A"/>
<path d="M8.79966 4.80024C10.4821 4.80024 11.1998 5.51788 11.1998 7.20036H12.7999C12.7999 4.62023 11.3798 3.20016 8.79966 3.20016V4.80024Z" fill="#07439A"/>
</svg>
