<svg width="18" height="14" viewBox="0 0 18 14" fill="none" xmlns="http://www.w3.org/2000/svg">
<path fill-rule="evenodd" clip-rule="evenodd" d="M6.91304 1.82909V1H3.43478V1.82909H2.73913C1.77864 1.82909 1 2.61056 1 3.57455V11.2545C1 12.2185 1.77863 13 2.73913 13H15.2609C16.2214 13 17 12.2185 17 11.2545V3.57455C17 2.61056 16.2214 1.82909 15.2609 1.82909H6.91304ZM2.73913 2.52727C2.16283 2.52727 1.69565 2.99615 1.69565 3.57455V11.2545C1.69565 11.8329 2.16283 12.3018 2.73913 12.3018H15.2609C15.8372 12.3018 16.3043 11.8329 16.3043 11.2545V3.57455C16.3043 2.99615 15.8372 2.52727 15.2609 2.52727H2.73913ZM11.7826 4.62182C10.4379 4.62182 9.34783 5.71587 9.34783 7.06545C9.34783 8.41504 10.4379 9.50909 11.7826 9.50909C13.1273 9.50909 14.2174 8.41504 14.2174 7.06545C14.2174 5.71587 13.1273 4.62182 11.7826 4.62182ZM8.65217 7.06545C8.65217 5.33028 10.0537 3.92364 11.7826 3.92364C13.5115 3.92364 14.913 5.33028 14.913 7.06545C14.913 8.80063 13.5115 10.2073 11.7826 10.2073C10.0537 10.2073 8.65217 8.80063 8.65217 7.06545ZM5.52174 4.97091H3.43478V4.27273H5.52174V4.97091ZM5.52174 6.36727H3.43478V5.66909H5.52174V6.36727Z" fill="white" stroke="white" stroke-width="0.2"/>
</svg>
