<svg width="17" height="16" viewBox="0 0 17 16" fill="none" xmlns="http://www.w3.org/2000/svg">
<path d="M13.4769 5.89277C14.1256 5.89244 14.7607 6.07943 15.3058 6.43126C15.8508 6.7831 16.2827 7.28482 16.5496 7.87615C16.8164 8.46748 16.9069 9.12328 16.81 9.76478C16.7132 10.4063 16.4333 11.0062 16.0038 11.4924V15.367C16.004 15.4752 15.9765 15.5816 15.9238 15.676C15.8711 15.7705 15.795 15.8498 15.7029 15.9065C15.6107 15.9631 15.5056 15.9951 15.3975 15.9995C15.2895 16.0038 15.1821 15.9804 15.0857 15.9314L15.0099 15.885L13.4769 14.8136L11.9439 15.885C11.8554 15.9468 11.7525 15.9849 11.645 15.9957C11.5376 16.0064 11.4292 15.9894 11.3302 15.9463C11.2311 15.9032 11.1448 15.8355 11.0794 15.7496C11.0141 15.6636 10.9718 15.5624 10.9567 15.4555L10.9508 15.367V11.4907C10.5219 11.0045 10.2424 10.4048 10.1459 9.76368C10.0493 9.12255 10.1398 8.46717 10.4065 7.87619C10.6732 7.2852 11.1047 6.78372 11.6493 6.43191C12.194 6.08009 12.8285 5.89289 13.4769 5.89277ZM14.7403 12.3869C14.3389 12.5493 13.9099 12.6325 13.4769 12.632C13.0439 12.6325 12.6149 12.5493 12.2134 12.3869V14.1549L13.1155 13.5257C13.2079 13.461 13.3159 13.4222 13.4283 13.4133C13.5407 13.4044 13.6535 13.4258 13.7548 13.4752L13.8391 13.5257L14.7403 14.1549V12.3869ZM14.5298 2.8542e-09C15.1196 -2.9261e-05 15.6873 0.224973 16.1169 0.629112C16.5466 1.03325 16.8059 1.58608 16.8419 2.17483L16.8461 2.31634L16.8469 6.73507C16.5054 6.2803 16.0757 5.89902 15.5835 5.61396L15.5826 2.31634C15.5828 2.05568 15.4862 1.80424 15.3116 1.61068C15.137 1.41712 14.8969 1.2952 14.6376 1.26851L14.5298 1.26346H2.31634C2.05568 1.26334 1.80424 1.35991 1.61068 1.53449C1.41712 1.70907 1.2952 1.94924 1.26851 2.20852L1.26346 2.31634V10.3182C1.26346 10.8632 1.67787 11.3122 2.20852 11.3652L2.31634 11.3711L9.83138 11.372L9.93499 11.5429L10.0479 11.708L10.1077 11.7872L10.1068 12.6346H2.31634C1.72635 12.6346 1.15858 12.4095 0.728911 12.0052C0.299238 11.6008 0.0400402 11.0478 0.00421162 10.4589L2.8542e-09 10.3182V2.31634C-2.9261e-05 1.72648 0.224973 1.15884 0.629112 0.729186C1.03325 0.299534 1.58608 0.0402464 2.17483 0.00421162L2.31634 2.8542e-09H14.5298ZM13.4769 7.15622C12.9183 7.15622 12.3826 7.37812 11.9876 7.77311C11.5926 8.1681 11.3707 8.70381 11.3707 9.26241C11.3707 9.821 11.5926 10.3567 11.9876 10.7517C12.3826 11.1467 12.9183 11.3686 13.4769 11.3686C14.0355 11.3686 14.5712 11.1467 14.9662 10.7517C15.3612 10.3567 15.5831 9.821 15.5831 9.26241C15.5831 8.70381 15.3612 8.1681 14.9662 7.77311C14.5712 7.37812 14.0355 7.15622 13.4769 7.15622ZM7.79132 7.99853C7.95138 7.99858 8.10545 8.05938 8.22241 8.16865C8.33936 8.27792 8.41048 8.42751 8.42139 8.5872C8.4323 8.74688 8.38218 8.90476 8.28118 9.02892C8.18017 9.15308 8.0358 9.23427 7.87724 9.25609L7.79132 9.26198H4.00095C3.84089 9.26194 3.68682 9.20113 3.56986 9.09186C3.45291 8.98259 3.38179 8.833 3.37088 8.67331C3.35997 8.51363 3.41008 8.35576 3.51109 8.23159C3.6121 8.10743 3.75647 8.02624 3.91503 8.00442L4.00095 7.99853H7.79132ZM12.8451 3.36585C13.0052 3.3659 13.1593 3.4267 13.2762 3.53597C13.3932 3.64524 13.4643 3.79484 13.4752 3.95452C13.4861 4.11421 13.436 4.27208 13.335 4.39624C13.234 4.5204 13.0896 4.60159 12.9311 4.62341L12.8451 4.62931H4.00095C3.84089 4.62926 3.68682 4.56846 3.56986 4.45919C3.45291 4.34991 3.38179 4.20032 3.37088 4.04064C3.35997 3.88095 3.41008 3.72308 3.51109 3.59892C3.6121 3.47476 3.75647 3.39356 3.91503 3.37175L4.00095 3.36585H12.8451Z" fill="#AEAEAE"/>
</svg>
