<svg width="16" height="16" viewBox="0 0 16 16" fill="none" xmlns="http://www.w3.org/2000/svg">
<path d="M10.1818 16H8.72727V14.5455H10.1818V16ZM13.0909 14.5455H11.6364V16H13.0909V14.5455ZM10.1818 11.6364H8.72727V13.0909H10.1818V11.6364ZM4.36364 14.5455H2.90909V16H4.36364V14.5455ZM4.36364 11.6364H2.90909V13.0909H4.36364V11.6364ZM13.0909 11.6364H11.6364V13.0909H13.0909V11.6364ZM10.1818 8.72727H8.72727V10.1818H10.1818V8.72727ZM13.0909 8.72727H11.6364V10.1818H13.0909V8.72727ZM14.5455 5.81818C14.9312 5.81818 15.3012 5.97143 15.574 6.24421C15.8468 6.51699 16 6.88696 16 7.27273V16H14.5455V7.27273H7.27273V16H5.81818V10.1818H1.45455V16H0V10.1818C0 9.79605 0.153246 9.42608 0.426027 9.1533C0.698807 8.88052 1.06878 8.72727 1.45455 8.72727H5.81818V7.27273C5.81818 6.88696 5.97143 6.51699 6.24421 6.24421C6.51699 5.97143 6.88696 5.81818 7.27273 5.81818V4.36364C7.27273 3.97787 7.42597 3.6079 7.69875 3.33512C7.97153 3.06234 8.3415 2.90909 8.72727 2.90909H10.1818V0H11.6364V2.90909H13.0909C13.4767 2.90909 13.8466 3.06234 14.1194 3.33512C14.3922 3.6079 14.5455 3.97787 14.5455 4.36364V5.81818ZM13.0909 5.81818V4.36364H8.72727V5.81818H13.0909Z" fill="#AEAEAE"/>
</svg>
