<svg width="16" height="16" viewBox="0 0 16 16" fill="none" xmlns="http://www.w3.org/2000/svg">
<path d="M3.76744 6.75269C4.36034 6.75269 4.93992 6.57688 5.4329 6.24748C5.92587 5.91808 6.3101 5.4499 6.53699 4.90214C6.76388 4.35437 6.82325 3.75163 6.70758 3.17012C6.59191 2.58862 6.30641 2.05447 5.88717 1.63523C5.46792 1.21599 4.93378 0.930484 4.35227 0.814816C3.77077 0.699147 3.16803 0.758513 2.62026 0.985404C2.0725 1.2123 1.60431 1.59652 1.27492 2.0895C0.945522 2.58247 0.769707 3.16206 0.769707 3.75495C0.770501 4.54976 1.08659 5.31178 1.6486 5.8738C2.21061 6.43581 2.97264 6.7519 3.76744 6.75269ZM3.76744 2.75571C3.96508 2.75571 4.15827 2.81431 4.3226 2.92411C4.48692 3.03391 4.615 3.18997 4.69063 3.37256C4.76626 3.55515 4.78605 3.75606 4.74749 3.9499C4.70893 4.14373 4.61377 4.32178 4.47402 4.46153C4.33427 4.60127 4.15622 4.69644 3.96239 4.735C3.76855 4.77355 3.56764 4.75377 3.38505 4.67814C3.20246 4.60251 3.0464 4.47443 2.9366 4.3101C2.8268 4.14578 2.7682 3.95258 2.7682 3.75495C2.7682 3.48994 2.87348 3.23577 3.06087 3.04838C3.24827 2.86098 3.50243 2.75571 3.76744 2.75571ZM12.245 9.23482C11.6522 9.23482 11.0726 9.41063 10.5796 9.74003C10.0866 10.0694 9.70239 10.5376 9.4755 11.0854C9.24861 11.6331 9.18924 12.2359 9.30491 12.8174C9.42058 13.3989 9.70609 13.933 10.1253 14.3523C10.5446 14.7715 11.0787 15.057 11.6602 15.1727C12.2417 15.2884 12.8445 15.229 13.3922 15.0021C13.94 14.7752 14.4082 14.391 14.7376 13.898C15.067 13.405 15.2428 12.8255 15.2428 12.2326C15.242 11.4377 14.9259 10.6757 14.3639 10.1137C13.8019 9.5517 13.0399 9.23561 12.245 9.23482ZM12.245 13.2318C12.0474 13.2318 11.8542 13.1732 11.6899 13.0634C11.5256 12.9536 11.3975 12.7975 11.3219 12.6149C11.2462 12.4324 11.2264 12.2314 11.265 12.0376C11.3036 11.8438 11.3987 11.6657 11.5385 11.526C11.6782 11.3862 11.8563 11.2911 12.0501 11.2525C12.2439 11.214 12.4449 11.2337 12.6274 11.3094C12.81 11.385 12.9661 11.5131 13.0759 11.6774C13.1857 11.8417 13.2443 12.0349 13.2443 12.2326C13.2443 12.4976 13.139 12.7517 12.9516 12.9391C12.7642 13.1265 12.5101 13.2318 12.245 13.2318ZM15.7074 0.292566C15.52 0.105236 15.2659 0 15.001 0C14.736 0 14.4819 0.105236 14.2945 0.292566L0.305058 14.282C0.20962 14.3742 0.133495 14.4844 0.0811256 14.6064C0.0287562 14.7283 0.00119067 14.8594 3.77286e-05 14.9921C-0.00111522 15.1248 0.0241672 15.2563 0.0744102 15.3791C0.124653 15.5019 0.19885 15.6135 0.292672 15.7073C0.386494 15.8011 0.498062 15.8753 0.620866 15.9256C0.743669 15.9758 0.87525 16.0011 1.00793 16C1.14061 15.9988 1.27173 15.9712 1.39364 15.9189C1.51555 15.8665 1.62581 15.7904 1.71799 15.6949L15.7074 1.7055C15.8948 1.51811 16 1.264 16 0.999032C16 0.734068 15.8948 0.479952 15.7074 0.292566Z" fill="#AEAEAE"/>
</svg>
