<svg width="18" height="18" viewBox="0 0 18 18" fill="none" xmlns="http://www.w3.org/2000/svg">
<path fill-rule="evenodd" clip-rule="evenodd" d="M2.54744 0.769658C3.04024 0.276854 3.70863 0 4.40556 0H13.2944C13.9914 0 14.6598 0.276854 15.1526 0.769658C15.6454 1.26246 15.9222 1.93085 15.9222 2.62778V16H16.85C17.3194 16 17.7 16.3806 17.7 16.85C17.7 17.3194 17.3194 17.7 16.85 17.7H0.85C0.380558 17.7 0 17.3194 0 16.85C0 16.3806 0.380558 16 0.85 16H1.77778V2.62778C1.77778 1.93085 2.05463 1.26246 2.54744 0.769658ZM3.47778 16V2.62778C3.47778 2.38172 3.57553 2.14573 3.74952 1.97174C3.92351 1.79775 4.15949 1.7 4.40556 1.7H13.2944C13.5405 1.7 13.7765 1.79775 13.9505 1.97174C14.1245 2.14573 14.2222 2.38172 14.2222 2.62778V16H11.4778V12.4056C11.4778 11.9444 11.2946 11.5021 10.9685 11.176C10.6424 10.8499 10.2001 10.6667 9.73889 10.6667H7.96111C7.49993 10.6667 7.05764 10.8499 6.73153 11.176C6.40543 11.5021 6.22222 11.9444 6.22222 12.4056V16H3.47778ZM7.92222 16H9.77778V12.4056C9.77778 12.3952 9.77368 12.3854 9.76639 12.3781C9.7591 12.3708 9.7492 12.3667 9.73889 12.3667H7.96111C7.9508 12.3667 7.94091 12.3708 7.93361 12.3781C7.92632 12.3854 7.92222 12.3952 7.92222 12.4056V16ZM5.33333 4.40556C5.33333 3.93611 5.71389 3.55556 6.18333 3.55556H7.07222C7.54166 3.55556 7.92222 3.93611 7.92222 4.40556C7.92222 4.875 7.54166 5.25556 7.07222 5.25556H6.18333C5.71389 5.25556 5.33333 4.875 5.33333 4.40556ZM9.77778 4.40556C9.77778 3.93611 10.1583 3.55556 10.6278 3.55556H11.5167C11.9861 3.55556 12.3667 3.93611 12.3667 4.40556C12.3667 4.875 11.9861 5.25556 11.5167 5.25556H10.6278C10.1583 5.25556 9.77778 4.875 9.77778 4.40556ZM5.33333 7.96111C5.33333 7.49167 5.71389 7.11111 6.18333 7.11111H7.07222C7.54166 7.11111 7.92222 7.49167 7.92222 7.96111C7.92222 8.43055 7.54166 8.81111 7.07222 8.81111H6.18333C5.71389 8.81111 5.33333 8.43055 5.33333 7.96111ZM9.77778 7.96111C9.77778 7.49167 10.1583 7.11111 10.6278 7.11111H11.5167C11.9861 7.11111 12.3667 7.49167 12.3667 7.96111C12.3667 8.43055 11.9861 8.81111 11.5167 8.81111H10.6278C10.1583 8.81111 9.77778 8.43055 9.77778 7.96111Z" fill="#AEAEAE"/>
</svg>
