<svg width="18" height="16" viewBox="0 0 18 16" fill="none" xmlns="http://www.w3.org/2000/svg">
<path d="M13.0909 2.4H15.5455L14.3182 4L13.0909 2.4ZM1.63636 0H16.3636C16.7976 0 17.2138 0.168571 17.5207 0.468629C17.8276 0.768687 18 1.17565 18 1.6V4.8C18 5.688 17.2718 6.4 16.3636 6.4H12.2727V14.4C12.2727 15.288 11.5445 16 10.6364 16H1.63636C1.20237 16 0.786158 15.8314 0.47928 15.5314C0.172402 15.2313 0 14.8243 0 14.4V1.6C0 0.72 0.736364 0 1.63636 0ZM1.63636 1.6V4.8H10.6364V1.6H1.63636ZM16.3636 4.8V1.6H12.2727V4.8H16.3636ZM1.63636 14.4H10.6364V6.4H1.63636V14.4ZM3.27273 8H9V9.6H3.27273V8ZM3.27273 11.2H9V12.8H3.27273V11.2Z" fill="#AEAEAE"/>
</svg>
