<svg width="19" height="16" viewBox="0 0 19 16" fill="none" xmlns="http://www.w3.org/2000/svg">
<path d="M7.33333 0C11.3833 0 14.6667 1.79067 14.6667 4V6.66667C14.6667 8.876 11.3833 10.6667 7.33333 10.6667C3.35533 10.6667 0.117333 8.93933 0.00333333 6.78467L0 6.66667V4C0 1.79067 3.28333 0 7.33333 0ZM7.33333 8C4.85333 8 2.66 7.32867 1.33333 6.3V6.66667C1.33333 7.92133 3.922 9.33333 7.33333 9.33333C10.6733 9.33333 13.2253 7.98 13.33 6.74533L13.3333 6.66667L13.334 6.3C12.0073 7.328 9.814 8 7.33333 8ZM7.33333 1.33333C3.922 1.33333 1.33333 2.74533 1.33333 4C1.33333 5.25467 3.922 6.66667 7.33333 6.66667C10.7447 6.66667 13.3333 5.25467 13.3333 4C13.3333 2.74533 10.7447 1.33333 7.33333 1.33333Z" fill="#AEAEAE"/>
<path fill-rule="evenodd" clip-rule="evenodd" d="M13.8971 6.94816C13.9648 6.74829 14 6.54281 14 6.33333C14 6.07284 13.946 5.81869 13.8424 5.57357C16.6569 6.13249 18.6667 7.60474 18.6667 9.33333V12C18.6667 14.2094 15.3835 16 11.3333 16C7.35547 16 4.11719 14.2727 4.00325 12.118L4 12V9.75008C4.48828 9.84538 5.00195 9.91528 5.5345 9.95654C6.20443 11.0132 8.48177 12 11.3333 12C14.7448 12 17.3333 10.588 17.3333 9.33333C17.3333 8.41976 15.9603 7.42269 13.8971 6.94816ZM5.33333 11.6333C6.66016 12.662 8.85351 13.3333 11.3333 13.3333C13.8138 13.3333 16.0072 12.6613 17.334 11.6333L17.3333 12L17.3301 12.0787C17.2253 13.3133 14.6732 14.6667 11.3333 14.6667C7.92187 14.6667 5.33333 13.2546 5.33333 12V11.6333Z" fill="#AEAEAE"/>
</svg>
