<svg width="17" height="17" viewBox="0 0 17 17" fill="none" xmlns="http://www.w3.org/2000/svg">
<g id="customers">
<path d="M8.5 3.64286C7.89959 3.64286 7.31267 3.8209 6.81345 4.15447C6.31423 4.48804 5.92513 4.96215 5.69537 5.51685C5.4656 6.07156 5.40548 6.68194 5.52262 7.27081C5.63975 7.85968 5.92887 8.40059 6.35343 8.82514C6.77798 9.2497 7.31889 9.53882 7.90776 9.65595C8.49663 9.77309 9.10701 9.71297 9.66172 9.4832C10.2164 9.25344 10.6905 8.86434 11.0241 8.36512C11.3577 7.8659 11.5357 7.27898 11.5357 6.67857C11.5357 5.87345 11.2159 5.1013 10.6466 4.532C10.0773 3.96269 9.30512 3.64286 8.5 3.64286ZM8.5 8.5C8.13976 8.5 7.7876 8.39317 7.48807 8.19303C7.18854 7.99289 6.95508 7.70842 6.81722 7.3756C6.67936 7.04278 6.64329 6.67655 6.71357 6.32323C6.78385 5.9699 6.95732 5.64536 7.21206 5.39063C7.46679 5.13589 7.79133 4.96242 8.14466 4.89214C8.49798 4.82186 8.86421 4.85793 9.19703 4.99579C9.52985 5.13365 9.81432 5.36711 10.0145 5.66664C10.2146 5.96617 10.3214 6.31833 10.3214 6.67857C10.3209 7.1615 10.1289 7.6245 9.78741 7.96598C9.44593 8.30746 8.98293 8.49952 8.5 8.5Z" fill="#07439A"/>
<path d="M8.5 0C6.81886 0 5.17547 0.498516 3.77766 1.43251C2.37984 2.3665 1.29037 3.69402 0.647028 5.24719C0.00368291 6.80036 -0.164645 8.50943 0.163329 10.1583C0.491303 11.8071 1.30085 13.3217 2.4896 14.5104C3.67834 15.6992 5.1929 16.5087 6.84174 16.8367C8.49057 17.1646 10.1996 16.9963 11.7528 16.353C13.306 15.7096 14.6335 14.6202 15.5675 13.2223C16.5015 11.8245 17 10.1811 17 8.5C16.9974 6.24645 16.1011 4.08593 14.5076 2.49243C12.9141 0.89893 10.7536 0.00257108 8.5 0ZM4.85715 14.8003V13.9643C4.85763 13.4814 5.04968 13.0184 5.39116 12.6769C5.73264 12.3354 6.19565 12.1433 6.67857 12.1429H10.3214C10.8044 12.1433 11.2674 12.3354 11.6088 12.6769C11.9503 13.0184 12.1424 13.4814 12.1429 13.9643V14.8003C11.0374 15.4458 9.78017 15.786 8.5 15.786C7.21983 15.786 5.96265 15.4458 4.85715 14.8003ZM13.3523 13.9194C13.3402 13.123 13.0157 12.3632 12.4488 11.8038C11.8819 11.2444 11.1179 10.9301 10.3214 10.9286H6.67857C5.88211 10.9301 5.11812 11.2444 4.5512 11.8038C3.98428 12.3632 3.65982 13.123 3.64772 13.9194C2.5467 12.9362 1.77027 11.6419 1.42122 10.2077C1.07218 8.77349 1.16699 7.2671 1.69311 5.88798C2.21922 4.50887 3.15182 3.32208 4.36741 2.48477C5.583 1.64746 7.02425 1.19912 8.50031 1.19912C9.97637 1.19912 11.4176 1.64746 12.6332 2.48477C13.8488 3.32208 14.7814 4.50887 15.3075 5.88798C15.8336 7.2671 15.9284 8.77349 15.5794 10.2077C15.2303 11.6419 14.4533 12.9362 13.3523 13.9194Z" fill="#07439A"/>
</g>
</svg>
