<svg width="16" height="18" viewBox="0 0 16 18" fill="none" xmlns="http://www.w3.org/2000/svg">
<g id="domisili">
<path d="M10.7024 11.5714C12.405 8.89975 12.1909 9.23306 12.24 9.16341C12.8599 8.28909 13.1875 7.26006 13.1875 6.1875C13.1875 3.34313 10.8793 1 8.03125 1C5.19244 1 2.875 3.3385 2.875 6.1875C2.875 7.25937 3.2095 8.31534 3.84969 9.20144L5.36006 11.5714C3.74522 11.8196 1 12.5591 1 14.1875C1 14.7811 1.38744 15.627 3.23319 16.2862C4.522 16.7465 6.22597 17 8.03125 17C11.407 17 15.0625 16.0477 15.0625 14.1875C15.0625 12.5588 12.3205 11.8201 10.7024 11.5714ZM4.63278 8.68578C4.62762 8.67772 4.62225 8.66984 4.61662 8.66209C4.08391 7.92922 3.8125 7.06066 3.8125 6.1875C3.8125 3.84319 5.70019 1.9375 8.03125 1.9375C10.3575 1.9375 12.25 3.84403 12.25 6.1875C12.25 7.06206 11.9837 7.90116 11.4798 8.61472C11.4347 8.67428 11.6702 8.30828 8.03125 14.0184L4.63278 8.68578ZM8.03125 16.0625C4.34394 16.0625 1.9375 14.9787 1.9375 14.1875C1.9375 13.6557 3.174 12.7814 5.914 12.4406L7.63594 15.1426C7.722 15.2776 7.87106 15.3594 8.03122 15.3594C8.19137 15.3594 8.34047 15.2776 8.4265 15.1426L10.1484 12.4406C12.8885 12.7814 14.125 13.6557 14.125 14.1875C14.125 14.9719 11.7402 16.0625 8.03125 16.0625Z" fill="#AEAEAE"/>
<path d="M8.03125 3.84375C6.73891 3.84375 5.6875 4.89516 5.6875 6.1875C5.6875 7.47984 6.73891 8.53125 8.03125 8.53125C9.32359 8.53125 10.375 7.47984 10.375 6.1875C10.375 4.89516 9.32359 3.84375 8.03125 3.84375ZM8.03125 7.59375C7.25584 7.59375 6.625 6.96291 6.625 6.1875C6.625 5.41209 7.25584 4.78125 8.03125 4.78125C8.80666 4.78125 9.4375 5.41209 9.4375 6.1875C9.4375 6.96291 8.80666 7.59375 8.03125 7.59375Z" fill="#AEAEAE"/>
<path d="M10.7024 11.5714C12.405 8.89975 12.1909 9.23306 12.24 9.16341C12.8599 8.28909 13.1875 7.26006 13.1875 6.1875C13.1875 3.34313 10.8793 1 8.03125 1C5.19244 1 2.875 3.3385 2.875 6.1875C2.875 7.25937 3.2095 8.31534 3.84969 9.20144L5.36006 11.5714C3.74522 11.8196 1 12.5591 1 14.1875C1 14.7811 1.38744 15.627 3.23319 16.2862C4.522 16.7465 6.22597 17 8.03125 17C11.407 17 15.0625 16.0477 15.0625 14.1875C15.0625 12.5588 12.3205 11.8201 10.7024 11.5714ZM4.63278 8.68578C4.62762 8.67772 4.62225 8.66984 4.61662 8.66209C4.08391 7.92922 3.8125 7.06066 3.8125 6.1875C3.8125 3.84319 5.70019 1.9375 8.03125 1.9375C10.3575 1.9375 12.25 3.84403 12.25 6.1875C12.25 7.06206 11.9837 7.90116 11.4798 8.61472C11.4347 8.67428 11.6702 8.30828 8.03125 14.0184L4.63278 8.68578ZM8.03125 16.0625C4.34394 16.0625 1.9375 14.9787 1.9375 14.1875C1.9375 13.6557 3.174 12.7814 5.914 12.4406L7.63594 15.1426C7.722 15.2776 7.87106 15.3594 8.03122 15.3594C8.19137 15.3594 8.34047 15.2776 8.4265 15.1426L10.1484 12.4406C12.8885 12.7814 14.125 13.6557 14.125 14.1875C14.125 14.9719 11.7402 16.0625 8.03125 16.0625Z" stroke="#AEAEAE" stroke-width="0.3"/>
<path d="M8.03125 3.84375C6.73891 3.84375 5.6875 4.89516 5.6875 6.1875C5.6875 7.47984 6.73891 8.53125 8.03125 8.53125C9.32359 8.53125 10.375 7.47984 10.375 6.1875C10.375 4.89516 9.32359 3.84375 8.03125 3.84375ZM8.03125 7.59375C7.25584 7.59375 6.625 6.96291 6.625 6.1875C6.625 5.41209 7.25584 4.78125 8.03125 4.78125C8.80666 4.78125 9.4375 5.41209 9.4375 6.1875C9.4375 6.96291 8.80666 7.59375 8.03125 7.59375Z" stroke="#AEAEAE" stroke-width="0.3"/>
</g>
</svg>
