<svg width="18" height="16" viewBox="0 0 18 16" fill="none" xmlns="http://www.w3.org/2000/svg">
<path id="home" d="M9.3672 0.131369C9.26073 0.0462346 9.1296 0 8.9946 0C8.8596 0 8.72847 0.0462346 8.622 0.131369L0 7.02689L0.7458 7.9943L1.8 7.1512V14.7692C1.80063 15.0954 1.92727 15.4081 2.15217 15.6388C2.37708 15.8695 2.68194 15.9993 3 16H15C15.3181 15.9993 15.6229 15.8695 15.8478 15.6388C16.0727 15.4081 16.1994 15.0954 16.2 14.7692V7.15674L17.2542 7.99984L18 7.03243L9.3672 0.131369ZM10.2 14.7692H7.8V9.84603H10.2V14.7692ZM11.4 14.7692V9.84603C11.3997 9.5197 11.2732 9.20683 11.0482 8.97609C10.8232 8.74534 10.5182 8.61556 10.2 8.61523H7.8C7.48184 8.61556 7.1768 8.74534 6.95182 8.97609C6.72685 9.20683 6.60032 9.5197 6.6 9.84603V14.7692H3V6.1918L9 1.39786L15 6.19795V14.7692H11.4Z" fill="#07439A"/>
</svg>
