<svg width="18" height="16" viewBox="0 0 18 16" fill="none" xmlns="http://www.w3.org/2000/svg">
<path d="M17.8191 3.70222L15.6816 2.07556C15.5364 1.98346 15.3784 1.91251 15.2127 1.86489C15.0476 1.81213 14.8758 1.7828 14.7024 1.77778H8.55L9.2709 6.22222H14.7024C14.85 6.22222 15.0345 6.18933 15.2118 6.13511C15.3891 6.08089 15.5601 6.00622 15.6807 5.92533L17.8182 4.29689C17.9397 4.216 18 4.10844 18 4C18 3.89156 17.9397 3.784 17.8191 3.70222ZM7.65 0H6.75C6.63065 0 6.51619 0.0468252 6.4318 0.130175C6.34741 0.213524 6.3 0.32657 6.3 0.444444V3.55556H3.2976C3.1482 3.55556 2.9646 3.58844 2.7873 3.64356C2.6091 3.69689 2.439 3.77067 2.3184 3.85333L0.1809 5.48C0.0594 5.56089 0 5.66933 0 5.77778C0 5.88533 0.0594 5.99289 0.1809 6.07556L2.3184 7.704C2.439 7.78489 2.6091 7.85956 2.7873 7.91289C2.9646 7.96711 3.1482 8 3.2976 8H6.3V15.5556C6.3 15.6734 6.34741 15.7865 6.4318 15.8698C6.51619 15.9532 6.63065 16 6.75 16H7.65C7.76935 16 7.88381 15.9532 7.9682 15.8698C8.05259 15.7865 8.1 15.6734 8.1 15.5556V0.444444C8.1 0.32657 8.05259 0.213524 7.9682 0.130175C7.88381 0.0468252 7.76935 0 7.65 0Z" fill="#AEAEAE"/>
</svg>
