<svg width="17" height="18" viewBox="0 0 17 18" fill="none" xmlns="http://www.w3.org/2000/svg">
<path id="house" d="M15.714 6.3134L8.71589 1.08972C8.57632 0.970093 8.35701 0.970093 8.21744 1.08972L1.17944 6.3134C1.07975 6.39315 1 6.51277 1 6.65234V16.5813C1.01994 16.8206 1.19938 17 1.43863 17H15.4748C15.714 17 15.8935 16.8206 15.8935 16.5813V6.65234C15.8935 6.51277 15.8336 6.39315 15.714 6.3134ZM10.0916 16.1626H6.82181V11.2579H10.0916V16.1626ZM15.0561 16.1626H10.929V10.8393C10.929 10.6 10.7495 10.4206 10.5103 10.4206H6.40312C6.16386 10.4206 5.98442 10.6 5.98442 10.8393V16.1626H1.85732V6.85171L8.4567 1.94704L15.0561 6.85171V16.1626Z" fill="#AEAEAE" stroke="#AEAEAE" stroke-width="0.7"/>
</svg>
