<svg width="23" height="16" viewBox="0 0 23 16" fill="none" xmlns="http://www.w3.org/2000/svg">
<path d="M2.4 0C1.084 0 0 1.084 0 2.4V13.6C0 14.916 1.084 16 2.4 16H20C21.316 16 22.4 14.916 22.4 13.6V2.4C22.4 1.084 21.316 0 20 0H2.4ZM2.4 1.6H20C20.4528 1.6 20.8 1.9472 20.8 2.4V13.6C20.8 14.0528 20.4528 14.4 20 14.4H2.4C1.9472 14.4 1.6 14.0528 1.6 13.6V2.4C1.6 1.9472 1.9472 1.6 2.4 1.6ZM7.2 3.2C5.44 3.2 4 4.64 4 6.4C4 7.2904 4.3816 8.0936 4.9752 8.6752C4.43066 9.04266 3.98424 9.53771 3.67483 10.1172C3.36542 10.6967 3.20241 11.3431 3.2 12H4.8C4.8 10.6656 5.8656 9.6 7.2 9.6C8.5344 9.6 9.6 10.6656 9.6 12H11.2C11.1976 11.3431 11.0346 10.6967 10.7252 10.1172C10.4158 9.53771 9.96934 9.04266 9.4248 8.6752C10.0184 8.0936 10.4 7.2912 10.4 6.4C10.4 4.64 8.96 3.2 7.2 3.2ZM12.8 4V5.6H19.2V4H12.8ZM7.2 4.8C8.0936 4.8 8.8 5.5064 8.8 6.4C8.8 7.2936 8.0936 8 7.2 8C6.3064 8 5.6 7.2936 5.6 6.4C5.6 5.5064 6.3064 4.8 7.2 4.8ZM12.8 7.2V8.8H19.2V7.2H12.8ZM12.8 10.4V12H16.8V10.4H12.8Z" fill="#AEAEAE"/>
</svg>
