<svg width="19" height="19" viewBox="0 0 19 19" fill="none" xmlns="http://www.w3.org/2000/svg">
<g id="info">
<path fill-rule="evenodd" clip-rule="evenodd" d="M9.5 16.9375C11.4725 16.9375 13.3643 16.1539 14.7591 14.7591C16.1539 13.3643 16.9375 11.4725 16.9375 9.5C16.9375 7.52745 16.1539 5.63569 14.7591 4.24089C13.3643 2.84609 11.4725 2.0625 9.5 2.0625C7.52745 2.0625 5.63569 2.84609 4.24089 4.24089C2.84609 5.63569 2.0625 7.52745 2.0625 9.5C2.0625 11.4725 2.84609 13.3643 4.24089 14.7591C5.63569 16.1539 7.52745 16.9375 9.5 16.9375ZM9.5 18C11.7543 18 13.9163 17.1045 15.5104 15.5104C17.1045 13.9163 18 11.7543 18 9.5C18 7.24566 17.1045 5.08365 15.5104 3.48959C13.9163 1.89553 11.7543 1 9.5 1C7.24566 1 5.08365 1.89553 3.48959 3.48959C1.89553 5.08365 1 7.24566 1 9.5C1 11.7543 1.89553 13.9163 3.48959 15.5104C5.08365 17.1045 7.24566 18 9.5 18Z" fill="#07439A"/>
<path d="M10.4881 7.99976L8.05495 8.30469L7.96782 8.70844L8.44595 8.79663C8.75832 8.87101 8.81995 8.98363 8.75195 9.29494L7.96782 12.9797C7.7617 13.9328 8.07939 14.3811 8.82632 14.3811C9.40539 14.3811 10.0779 14.1134 10.3829 13.7458L10.4764 13.3038C10.2639 13.4908 9.95364 13.5651 9.74751 13.5651C9.45532 13.5651 9.34907 13.3601 9.42451 12.9988L10.4881 7.99976Z" fill="#07439A"/>
<path d="M9.5 6.84375C10.0868 6.84375 10.5625 6.36805 10.5625 5.78125C10.5625 5.19445 10.0868 4.71875 9.5 4.71875C8.9132 4.71875 8.4375 5.19445 8.4375 5.78125C8.4375 6.36805 8.9132 6.84375 9.5 6.84375Z" fill="#07439A"/>
<path fill-rule="evenodd" clip-rule="evenodd" d="M9.5 16.9375C11.4725 16.9375 13.3643 16.1539 14.7591 14.7591C16.1539 13.3643 16.9375 11.4725 16.9375 9.5C16.9375 7.52745 16.1539 5.63569 14.7591 4.24089C13.3643 2.84609 11.4725 2.0625 9.5 2.0625C7.52745 2.0625 5.63569 2.84609 4.24089 4.24089C2.84609 5.63569 2.0625 7.52745 2.0625 9.5C2.0625 11.4725 2.84609 13.3643 4.24089 14.7591C5.63569 16.1539 7.52745 16.9375 9.5 16.9375ZM9.5 18C11.7543 18 13.9163 17.1045 15.5104 15.5104C17.1045 13.9163 18 11.7543 18 9.5C18 7.24566 17.1045 5.08365 15.5104 3.48959C13.9163 1.89553 11.7543 1 9.5 1C7.24566 1 5.08365 1.89553 3.48959 3.48959C1.89553 5.08365 1 7.24566 1 9.5C1 11.7543 1.89553 13.9163 3.48959 15.5104C5.08365 17.1045 7.24566 18 9.5 18Z" stroke="#07439A" stroke-width="0.3"/>
<path d="M10.4881 7.99976L8.05495 8.30469L7.96782 8.70844L8.44595 8.79663C8.75832 8.87101 8.81995 8.98363 8.75195 9.29494L7.96782 12.9797C7.7617 13.9328 8.07939 14.3811 8.82632 14.3811C9.40539 14.3811 10.0779 14.1134 10.3829 13.7458L10.4764 13.3038C10.2639 13.4908 9.95364 13.5651 9.74751 13.5651C9.45532 13.5651 9.34907 13.3601 9.42451 12.9988L10.4881 7.99976Z" stroke="#07439A" stroke-width="0.3"/>
<path d="M9.5 6.84375C10.0868 6.84375 10.5625 6.36805 10.5625 5.78125C10.5625 5.19445 10.0868 4.71875 9.5 4.71875C8.9132 4.71875 8.4375 5.19445 8.4375 5.78125C8.4375 6.36805 8.9132 6.84375 9.5 6.84375Z" stroke="#07439A" stroke-width="0.3"/>
</g>
</svg>
