<svg width="283" height="61" viewBox="0 0 283 61" fill="none" xmlns="http://www.w3.org/2000/svg">
<rect x="31" y="22" width="235" height="10" rx="5" fill="#3D84EE"/>
<rect x="31" y="22" width="235" height="10" rx="5" fill="white"/>
<g filter="url(#filter0_d)">
<circle cx="30.5" cy="26.5" r="17.5" fill="white"/>
</g>
<path d="M28.2249 29.2055L24.5696 25.5502L23 27.1197L28.2249 32.3447L39 21.5696L37.4304 20L28.2249 29.2055Z" fill="#07439A"/>
<circle cx="265.5" cy="26.5" r="16.5" fill="white" stroke="white" stroke-width="2"/>
<path d="M265.428 18C262.438 18 259.805 19.5293 258.267 21.8482C257.966 22.3018 257.709 22.783 257.499 23.2852C257.288 23.7911 257.127 24.3161 257.017 24.853C257.015 24.8583 257.013 24.8641 257.012 24.8695V24.87H257.013C257.011 24.8826 257.009 24.8956 257.009 24.9088C257.009 25.0179 257.098 25.106 257.207 25.106H258.922C259.011 25.1061 259.091 25.0466 259.114 24.9572C259.609 23.0321 260.963 21.4511 262.744 20.6456C263.093 20.4874 263.455 20.3606 263.827 20.2666C264.35 20.1345 264.888 20.0677 265.427 20.0679V20.0689H265.428V20.0679C265.861 20.0679 266.286 20.1109 266.7 20.1928C266.777 20.2081 266.857 20.2256 266.938 20.2449C267.016 20.2634 267.095 20.2834 267.173 20.3049H267.173C267.215 20.3167 267.26 20.3141 267.301 20.2975C267.342 20.2808 267.376 20.2511 267.397 20.213L268.25 18.7355C268.259 18.7219 268.266 18.707 268.272 18.6909C268.306 18.5873 268.251 18.4753 268.147 18.4406C267.786 18.3201 267.418 18.2239 267.044 18.1525C266.971 18.1386 266.897 18.1257 266.823 18.1137C266.371 18.0396 265.905 18.0011 265.429 18.0011V18H265.428ZM270.987 19.9366C270.952 19.9358 270.917 19.9446 270.886 19.9621C270.855 19.9796 270.829 20.0051 270.811 20.036L269.96 21.5113C269.909 21.5886 269.918 21.6932 269.986 21.7605C270.49 22.2558 270.914 22.8323 271.237 23.4686C271.3 23.5926 271.359 23.7187 271.414 23.8465C271.751 24.6343 271.939 25.5016 271.939 26.4118H271.938V26.4123C271.938 27.7243 271.55 28.9448 270.884 29.9666C270.755 30.1651 270.615 30.3563 270.464 30.5395C270.317 30.7202 270.159 30.8928 269.993 31.0566L269.992 31.0572L269.986 31.063L269.987 31.0635C269.924 31.125 269.908 31.223 269.954 31.3027L270.807 32.7817C270.814 32.7955 270.823 32.8089 270.834 32.8211C270.907 32.9028 271.032 32.9104 271.113 32.8381C272.104 31.9599 272.889 30.8567 273.391 29.609C273.489 29.3651 273.575 29.1168 273.65 28.865C273.881 28.0888 274.006 27.2656 274.006 26.4123C274.006 24.571 273.426 22.8653 272.44 21.4677C272.248 21.1963 272.041 20.9362 271.819 20.6886C271.598 20.4413 271.362 20.2069 271.114 19.9866H271.113C271.103 19.9778 271.093 19.9695 271.081 19.9627C271.052 19.9463 271.02 19.9373 270.987 19.9366L270.987 19.9366ZM257.198 27.8929V27.894C257.185 27.894 257.172 27.8951 257.159 27.8977C257.052 27.9191 256.982 28.023 257.004 28.1299C257.577 30.9514 259.535 33.2713 262.136 34.349C262.647 34.5607 263.178 34.7222 263.72 34.831C264.269 34.9412 264.837 34.9989 265.418 34.9989V35H265.419C266.103 35 266.768 34.9196 267.406 34.7683C267.53 34.739 267.653 34.7069 267.775 34.6721C267.888 34.6398 268.007 34.6026 268.13 34.5616C268.145 34.5572 268.16 34.551 268.174 34.543C268.269 34.4882 268.301 34.367 268.246 34.2725L267.388 32.7865C267.344 32.7104 267.253 32.6706 267.165 32.6951C266.93 32.7601 266.693 32.8119 266.453 32.8503C266.408 32.8574 266.361 32.8642 266.311 32.871C266.016 32.9116 265.718 32.932 265.42 32.9321V32.9311H265.419C263.236 32.9311 261.304 31.8582 260.121 30.2117C260.119 30.2082 260.116 30.2049 260.114 30.2016C259.883 29.8783 259.681 29.5351 259.513 29.1764C259.346 28.8201 259.21 28.4467 259.109 28.0598C259.094 27.9652 259.012 27.8929 258.913 27.8929H257.198L257.198 27.8929Z" fill="#2770DD"/>
<path d="M262.188 29.978C263.373 29.026 264.302 28.2467 264.974 27.64C265.646 27.024 266.21 26.3847 266.668 25.722C267.134 25.05 267.368 24.392 267.368 23.748C267.368 23.1413 267.218 22.6653 266.92 22.32C266.63 21.9653 266.159 21.788 265.506 21.788C264.871 21.788 264.376 21.9887 264.022 22.39C263.676 22.782 263.49 23.3093 263.462 23.972H262.23C262.267 22.9267 262.584 22.1193 263.182 21.55C263.779 20.9807 264.549 20.696 265.492 20.696C266.453 20.696 267.214 20.962 267.774 21.494C268.343 22.026 268.628 22.7587 268.628 23.692C268.628 24.4667 268.394 25.2227 267.928 25.96C267.47 26.688 266.948 27.332 266.36 27.892C265.772 28.4427 265.02 29.0867 264.106 29.824H268.922V30.888H262.188V29.978Z" fill="white"/>
<defs>
<filter id="filter0_d" x="0" y="0" width="61" height="61" filterUnits="userSpaceOnUse" color-interpolation-filters="sRGB">
<feFlood flood-opacity="0" result="BackgroundImageFix"/>
<feColorMatrix in="SourceAlpha" type="matrix" values="0 0 0 0 0 0 0 0 0 0 0 0 0 0 0 0 0 0 127 0"/>
<feMorphology radius="2" operator="erode" in="SourceAlpha" result="effect1_dropShadow"/>
<feOffset dy="4"/>
<feGaussianBlur stdDeviation="7.5"/>
<feColorMatrix type="matrix" values="0 0 0 0 0 0 0 0 0 0 0 0 0 0 0 0 0 0 0.25 0"/>
<feBlend mode="normal" in2="BackgroundImageFix" result="effect1_dropShadow"/>
<feBlend mode="normal" in="SourceGraphic" in2="effect1_dropShadow" result="shape"/>
</filter>
</defs>
</svg>
