<svg width="23" height="19" viewBox="0 0 23 19" fill="none" xmlns="http://www.w3.org/2000/svg">
<g id="join">
<path d="M22.117 6.79474L20.7152 5.39295C20.5517 5.22946 20.2867 5.22946 20.1232 5.39295C19.9597 5.55628 19.9597 5.8213 20.1232 5.9848L21.5252 7.38674C21.6149 7.4765 21.6149 7.62266 21.5252 7.71258L20.4545 8.78313C20.3647 8.87305 20.2185 8.87305 20.1286 8.78313L14.6462 3.30058C14.5563 3.21082 14.5563 3.06466 14.6462 2.97474L15.7168 1.90419C15.8065 1.81444 15.9529 1.81444 16.0426 1.90419L17.4604 3.322C17.6239 3.48549 17.8889 3.48549 18.0524 3.322C18.2159 3.15867 18.2159 2.89365 18.0524 2.73016L16.6346 1.31219C16.2184 0.895937 15.5412 0.895937 15.1249 1.31219L14.0542 2.3829C13.7794 2.65773 13.6862 3.04635 13.7743 3.39868C12.9569 3.55334 12.163 3.81607 11.4153 4.17543H9.75619L9.53303 3.94752C9.78186 3.53683 9.72938 2.99354 9.37509 2.63925L8.30438 1.56871C7.88813 1.15246 7.21095 1.15246 6.79469 1.56871L1.31231 7.05109C0.895896 7.46734 0.895896 8.14453 1.31231 8.56078L2.38286 9.63149C2.58444 9.83307 2.85257 9.94409 3.1377 9.94409C3.28762 9.94409 3.43264 9.91319 3.56589 9.85482L5.31198 11.6009C5.2577 11.7553 5.22942 11.9192 5.22942 12.0878C5.22942 12.4795 5.38196 12.8477 5.65891 13.1248C5.93587 13.4018 6.30422 13.5543 6.69595 13.5543C6.70134 13.5543 6.70657 13.554 6.7118 13.5538C6.7118 13.5592 6.71148 13.5645 6.71148 13.5699C6.71148 13.9616 6.86402 14.3299 7.14097 14.6069C7.41809 14.8838 7.78628 15.0364 8.178 15.0364C8.18356 15.0364 8.18912 15.036 8.19468 15.036C8.19059 15.4168 8.33316 15.7991 8.62319 16.0889C8.90898 16.3749 9.28468 16.5178 9.66022 16.5178C9.66545 16.5178 9.67085 16.5175 9.67608 16.5175C9.67608 16.523 9.67575 16.5286 9.67575 16.5341C9.67575 16.9259 9.82829 17.294 10.1052 17.5712C10.3912 17.8571 10.7667 18 11.1423 18C11.5178 18 11.8934 17.8569 12.1793 17.5712L12.76 16.9904C12.9224 16.8281 13.0385 16.637 13.1086 16.4333L13.3296 16.6543C13.6066 16.9314 13.9749 17.084 14.3667 17.084C14.7584 17.084 15.1267 16.9313 15.4037 16.6543C15.6936 16.3644 15.8363 15.9822 15.8322 15.6014C15.8378 15.6014 15.8432 15.6017 15.8487 15.6017C16.2406 15.6017 16.6088 15.4492 16.8858 15.1722C17.176 14.882 17.3185 14.4996 17.3143 14.1185C17.3198 14.1185 17.3254 14.1189 17.3309 14.1189C17.7065 14.1189 18.082 13.976 18.368 13.69C18.9397 13.1181 18.9397 12.1877 18.368 11.616L18.2511 11.4991L19.9264 9.82376C19.9754 9.77471 20.0096 9.7165 20.0291 9.65454C20.1151 9.67612 20.2032 9.68708 20.2913 9.68708C20.5647 9.68708 20.8382 9.5831 21.0463 9.37497L22.1169 8.30426C22.5333 7.88817 22.5333 7.21099 22.117 6.79474ZM2.97486 9.03948L1.90415 7.96894C1.81423 7.87902 1.81423 7.73285 1.90415 7.6431L7.3867 2.16055C7.4315 2.11559 7.49052 2.09319 7.54954 2.09319C7.60856 2.09319 7.66758 2.11559 7.71254 2.16055L8.78309 3.23126C8.87301 3.32102 8.87301 3.46718 8.78309 3.5571L3.3007 9.03948C3.25705 9.08314 3.19934 9.10701 3.1377 9.10701C3.07606 9.10701 3.01835 9.08314 2.97486 9.03948ZM6.69595 12.7172C6.52771 12.7172 6.36978 12.6517 6.25076 12.5328C6.1319 12.414 6.0665 12.2559 6.0665 12.0876C6.0665 11.9196 6.1319 11.7615 6.25076 11.6426L7.38425 10.5091C7.50311 10.3903 7.6612 10.3249 7.82927 10.3249C7.99751 10.3249 8.15544 10.3903 8.27446 10.5091C8.39332 10.628 8.45888 10.7861 8.45888 10.9543C8.45888 11.1224 8.39332 11.2805 8.27446 11.3993L7.14097 12.5328C7.02211 12.6517 6.86402 12.7172 6.69595 12.7172ZM8.178 14.1993C8.00993 14.1993 7.85184 14.1339 7.73298 14.0149C7.61395 13.896 7.54856 13.7379 7.54856 13.5699C7.54856 13.4016 7.61395 13.2435 7.73298 13.1247L8.8663 11.9913C8.98516 11.8723 9.14326 11.8069 9.31149 11.8069C9.47956 11.8069 9.63766 11.8723 9.75652 11.9913C10.0019 12.2367 10.0019 12.636 9.75652 12.8815L8.62319 14.0149C8.50433 14.1339 8.34624 14.1993 8.178 14.1993ZM9.66022 15.6815C9.49199 15.6815 9.33406 15.616 9.21503 15.4971C8.96963 15.2517 8.96963 14.8523 9.21503 14.6069L9.80295 14.0191C9.92557 13.8963 10.0868 13.835 10.248 13.835C10.4092 13.835 10.5704 13.8963 10.6932 14.0191C10.9386 14.2645 10.9386 14.6638 10.6932 14.9092L10.1052 15.4971C9.98639 15.616 9.82829 15.6815 9.66022 15.6815ZM12.1682 16.3984L11.5875 16.9792C11.3419 17.2247 10.9427 17.2246 10.6973 16.9792C10.4519 16.7338 10.4519 16.3345 10.6973 16.0889L11.278 15.5082C11.4008 15.3856 11.5618 15.3241 11.723 15.3241C11.8842 15.3241 12.0454 15.3856 12.1682 15.5082C12.4136 15.7536 12.4136 16.153 12.1682 16.3984ZM17.7761 13.0982C17.5307 13.3436 17.1313 13.3436 16.8859 13.0982L13.2809 9.49301C13.1174 9.32968 12.8524 9.32968 12.6889 9.49301C12.5254 9.6565 12.5256 9.92152 12.6889 10.085L16.2941 13.6902C16.4129 13.809 16.4783 13.9671 16.4783 14.1352C16.4783 14.3034 16.4129 14.4614 16.2941 14.5802C16.1752 14.6993 16.0171 14.7647 15.8489 14.7647C15.6808 14.7647 15.5227 14.6993 15.4039 14.5802L11.7989 10.9752C11.6354 10.8117 11.3704 10.8117 11.2069 10.9752C11.0434 11.1387 11.0434 11.4037 11.2069 11.5672L14.8119 15.1722C14.9307 15.2911 14.9963 15.4492 14.9963 15.6174C14.9963 15.7855 14.9307 15.9436 14.8119 16.0625C14.5665 16.3079 14.167 16.3079 13.9216 16.0625L10.7162 12.8569C10.8648 12.3572 10.7424 11.7932 10.3485 11.3995C10.0714 11.1224 9.70322 10.9698 9.31149 10.9698C9.3061 10.9698 9.30087 10.9702 9.29547 10.9703C9.29547 10.9649 9.29596 10.9597 9.29596 10.9543C9.29596 10.5626 9.14326 10.1942 8.8663 9.91727C8.58935 9.64032 8.221 9.48778 7.82927 9.48778C7.43755 9.48778 7.0692 9.64032 6.79224 9.91727L5.80213 10.9074L4.20939 9.31464L8.9626 4.56143L9.28092 4.88678C9.35972 4.96722 9.46747 5.01251 9.58011 5.01251H9.9998C9.59532 5.30123 9.21274 5.62168 8.85748 5.97204L8.58395 6.24164C7.99783 6.81975 7.98655 7.7716 8.55861 8.36344C8.8493 8.66411 9.24054 8.82433 9.64077 8.82416C9.82911 8.82416 10.0194 8.78869 10.202 8.71577L12.3366 7.86348H13.4318L17.7761 12.208C18.0217 12.4534 18.0217 12.8528 17.7761 13.0982ZM17.6594 10.9072L14.6157 7.86365H14.9095C15.1406 7.86365 15.328 7.67612 15.328 7.44511C15.328 7.21393 15.1406 7.0264 14.9095 7.0264H12.2562C12.203 7.0264 12.1502 7.03654 12.1008 7.05632L9.89173 7.93853C9.63766 8.03989 9.35073 7.97842 9.16059 7.78174C8.90603 7.51835 8.9111 7.09491 9.17187 6.83773L9.44539 6.56797C10.7625 5.26886 12.4883 4.41641 14.3188 4.15712L19.3656 9.20396C19.355 9.21279 19.3447 9.2221 19.3347 9.23191L17.6594 10.9072Z" fill="#07439A"/>
<path d="M19.0885 4.77658C19.1989 4.77658 19.3064 4.73195 19.3844 4.65396C19.4622 4.57614 19.507 4.46824 19.507 4.35804C19.507 4.24801 19.4622 4.14011 19.3844 4.06212C19.3064 3.98397 19.1989 3.9395 19.0885 3.9395C18.9783 3.9395 18.8704 3.98397 18.7926 4.06212C18.7146 4.14011 18.6698 4.24801 18.6698 4.35804C18.6698 4.46824 18.7146 4.57582 18.7926 4.65396C18.8704 4.73195 18.9783 4.77658 19.0885 4.77658Z" fill="#07439A"/>
<path d="M22.117 6.79474L20.7152 5.39295C20.5517 5.22946 20.2867 5.22946 20.1232 5.39295C19.9597 5.55628 19.9597 5.8213 20.1232 5.9848L21.5252 7.38674C21.6149 7.4765 21.6149 7.62266 21.5252 7.71258L20.4545 8.78313C20.3647 8.87305 20.2185 8.87305 20.1286 8.78313L14.6462 3.30058C14.5563 3.21082 14.5563 3.06466 14.6462 2.97474L15.7168 1.90419C15.8065 1.81444 15.9529 1.81444 16.0426 1.90419L17.4604 3.322C17.6239 3.48549 17.8889 3.48549 18.0524 3.322C18.2159 3.15867 18.2159 2.89365 18.0524 2.73016L16.6346 1.31219C16.2184 0.895937 15.5412 0.895937 15.1249 1.31219L14.0542 2.3829C13.7794 2.65773 13.6862 3.04635 13.7743 3.39868C12.9569 3.55334 12.163 3.81607 11.4153 4.17543H9.75619L9.53303 3.94752C9.78186 3.53683 9.72938 2.99354 9.37509 2.63925L8.30438 1.56871C7.88813 1.15246 7.21095 1.15246 6.79469 1.56871L1.31231 7.05109C0.895896 7.46734 0.895896 8.14453 1.31231 8.56078L2.38286 9.63149C2.58444 9.83307 2.85257 9.94409 3.1377 9.94409C3.28762 9.94409 3.43264 9.91319 3.56589 9.85482L5.31198 11.6009C5.2577 11.7553 5.22942 11.9192 5.22942 12.0878C5.22942 12.4795 5.38196 12.8477 5.65891 13.1248C5.93587 13.4018 6.30422 13.5543 6.69595 13.5543C6.70134 13.5543 6.70657 13.554 6.7118 13.5538C6.7118 13.5592 6.71148 13.5645 6.71148 13.5699C6.71148 13.9616 6.86402 14.3299 7.14097 14.6069C7.41809 14.8838 7.78628 15.0364 8.178 15.0364C8.18356 15.0364 8.18912 15.036 8.19468 15.036C8.19059 15.4168 8.33316 15.7991 8.62319 16.0889C8.90898 16.3749 9.28468 16.5178 9.66022 16.5178C9.66545 16.5178 9.67085 16.5175 9.67608 16.5175C9.67608 16.523 9.67575 16.5286 9.67575 16.5341C9.67575 16.9259 9.82829 17.294 10.1052 17.5712C10.3912 17.8571 10.7667 18 11.1423 18C11.5178 18 11.8934 17.8569 12.1793 17.5712L12.76 16.9904C12.9224 16.8281 13.0385 16.637 13.1086 16.4333L13.3296 16.6543C13.6066 16.9314 13.9749 17.084 14.3667 17.084C14.7584 17.084 15.1267 16.9313 15.4037 16.6543C15.6936 16.3644 15.8363 15.9822 15.8322 15.6014C15.8378 15.6014 15.8432 15.6017 15.8487 15.6017C16.2406 15.6017 16.6088 15.4492 16.8858 15.1722C17.176 14.882 17.3185 14.4996 17.3143 14.1185C17.3198 14.1185 17.3254 14.1189 17.3309 14.1189C17.7065 14.1189 18.082 13.976 18.368 13.69C18.9397 13.1181 18.9397 12.1877 18.368 11.616L18.2511 11.4991L19.9264 9.82376C19.9754 9.77471 20.0096 9.7165 20.0291 9.65454C20.1151 9.67612 20.2032 9.68708 20.2913 9.68708C20.5647 9.68708 20.8382 9.5831 21.0463 9.37497L22.1169 8.30426C22.5333 7.88817 22.5333 7.21099 22.117 6.79474ZM2.97486 9.03948L1.90415 7.96894C1.81423 7.87902 1.81423 7.73285 1.90415 7.6431L7.3867 2.16055C7.4315 2.11559 7.49052 2.09319 7.54954 2.09319C7.60856 2.09319 7.66758 2.11559 7.71254 2.16055L8.78309 3.23126C8.87301 3.32102 8.87301 3.46718 8.78309 3.5571L3.3007 9.03948C3.25705 9.08314 3.19934 9.10701 3.1377 9.10701C3.07606 9.10701 3.01835 9.08314 2.97486 9.03948ZM6.69595 12.7172C6.52771 12.7172 6.36978 12.6517 6.25076 12.5328C6.1319 12.414 6.0665 12.2559 6.0665 12.0876C6.0665 11.9196 6.1319 11.7615 6.25076 11.6426L7.38425 10.5091C7.50311 10.3903 7.6612 10.3249 7.82927 10.3249C7.99751 10.3249 8.15544 10.3903 8.27446 10.5091C8.39332 10.628 8.45888 10.7861 8.45888 10.9543C8.45888 11.1224 8.39332 11.2805 8.27446 11.3993L7.14097 12.5328C7.02211 12.6517 6.86402 12.7172 6.69595 12.7172ZM8.178 14.1993C8.00993 14.1993 7.85184 14.1339 7.73298 14.0149C7.61395 13.896 7.54856 13.7379 7.54856 13.5699C7.54856 13.4016 7.61395 13.2435 7.73298 13.1247L8.8663 11.9913C8.98516 11.8723 9.14326 11.8069 9.31149 11.8069C9.47956 11.8069 9.63766 11.8723 9.75652 11.9913C10.0019 12.2367 10.0019 12.636 9.75652 12.8815L8.62319 14.0149C8.50433 14.1339 8.34624 14.1993 8.178 14.1993ZM9.66022 15.6815C9.49199 15.6815 9.33406 15.616 9.21503 15.4971C8.96963 15.2517 8.96963 14.8523 9.21503 14.6069L9.80295 14.0191C9.92557 13.8963 10.0868 13.835 10.248 13.835C10.4092 13.835 10.5704 13.8963 10.6932 14.0191C10.9386 14.2645 10.9386 14.6638 10.6932 14.9092L10.1052 15.4971C9.98639 15.616 9.82829 15.6815 9.66022 15.6815ZM12.1682 16.3984L11.5875 16.9792C11.3419 17.2247 10.9427 17.2246 10.6973 16.9792C10.4519 16.7338 10.4519 16.3345 10.6973 16.0889L11.278 15.5082C11.4008 15.3856 11.5618 15.3241 11.723 15.3241C11.8842 15.3241 12.0454 15.3856 12.1682 15.5082C12.4136 15.7536 12.4136 16.153 12.1682 16.3984ZM17.7761 13.0982C17.5307 13.3436 17.1313 13.3436 16.8859 13.0982L13.2809 9.49301C13.1174 9.32968 12.8524 9.32968 12.6889 9.49301C12.5254 9.6565 12.5256 9.92152 12.6889 10.085L16.2941 13.6902C16.4129 13.809 16.4783 13.9671 16.4783 14.1352C16.4783 14.3034 16.4129 14.4614 16.2941 14.5802C16.1752 14.6993 16.0171 14.7647 15.8489 14.7647C15.6808 14.7647 15.5227 14.6993 15.4039 14.5802L11.7989 10.9752C11.6354 10.8117 11.3704 10.8117 11.2069 10.9752C11.0434 11.1387 11.0434 11.4037 11.2069 11.5672L14.8119 15.1722C14.9307 15.2911 14.9963 15.4492 14.9963 15.6174C14.9963 15.7855 14.9307 15.9436 14.8119 16.0625C14.5665 16.3079 14.167 16.3079 13.9216 16.0625L10.7162 12.8569C10.8648 12.3572 10.7424 11.7932 10.3485 11.3995C10.0714 11.1224 9.70322 10.9698 9.31149 10.9698C9.3061 10.9698 9.30087 10.9702 9.29547 10.9703C9.29547 10.9649 9.29596 10.9597 9.29596 10.9543C9.29596 10.5626 9.14326 10.1942 8.8663 9.91727C8.58935 9.64032 8.221 9.48778 7.82927 9.48778C7.43755 9.48778 7.0692 9.64032 6.79224 9.91727L5.80213 10.9074L4.20939 9.31464L8.9626 4.56143L9.28092 4.88678C9.35972 4.96722 9.46747 5.01251 9.58011 5.01251H9.9998C9.59532 5.30123 9.21274 5.62168 8.85748 5.97204L8.58395 6.24164C7.99783 6.81975 7.98655 7.7716 8.55861 8.36344C8.8493 8.66411 9.24054 8.82433 9.64077 8.82416C9.82911 8.82416 10.0194 8.78869 10.202 8.71577L12.3366 7.86348H13.4318L17.7761 12.208C18.0217 12.4534 18.0217 12.8528 17.7761 13.0982ZM17.6594 10.9072L14.6157 7.86365H14.9095C15.1406 7.86365 15.328 7.67612 15.328 7.44511C15.328 7.21393 15.1406 7.0264 14.9095 7.0264H12.2562C12.203 7.0264 12.1502 7.03654 12.1008 7.05632L9.89173 7.93853C9.63766 8.03989 9.35073 7.97842 9.16059 7.78174C8.90603 7.51835 8.9111 7.09491 9.17187 6.83773L9.44539 6.56797C10.7625 5.26886 12.4883 4.41641 14.3188 4.15712L19.3656 9.20396C19.355 9.21279 19.3447 9.2221 19.3347 9.23191L17.6594 10.9072Z" stroke="#07439A" stroke-width="0.2"/>
<path d="M19.0885 4.77658C19.1989 4.77658 19.3064 4.73195 19.3844 4.65396C19.4622 4.57614 19.507 4.46824 19.507 4.35804C19.507 4.24801 19.4622 4.14011 19.3844 4.06212C19.3064 3.98397 19.1989 3.9395 19.0885 3.9395C18.9783 3.9395 18.8704 3.98397 18.7926 4.06212C18.7146 4.14011 18.6698 4.24801 18.6698 4.35804C18.6698 4.46824 18.7146 4.57582 18.7926 4.65396C18.8704 4.73195 18.9783 4.77658 19.0885 4.77658Z" stroke="#07439A" stroke-width="0.2"/>
</g>
</svg>
