<svg width="33" height="20" viewBox="0 0 33 20" fill="none" xmlns="http://www.w3.org/2000/svg">
<path fill-rule="evenodd" clip-rule="evenodd" d="M23 0C25.6522 0 28.1957 1.05357 30.0711 2.92893C31.9464 4.8043 33 7.34784 33 10C33 12.6522 31.9464 15.1957 30.0711 17.0711C28.1957 18.9464 25.6522 20 23 20C20.3478 20 17.8043 18.9464 15.9289 17.0711C14.0536 15.1957 13 12.6522 13 10C13 7.34784 14.0536 4.8043 15.9289 2.92893C17.8043 1.05357 20.3478 0 23 0ZM30.5292 6.15385C29.5425 4.2354 27.8635 2.76371 25.8323 2.03692C26.5154 3.32923 27.0092 4.71385 27.2985 6.15385H30.5292ZM31.4246 10.7615C31.4492 10.5084 31.4616 10.2543 31.4615 10C31.46 9.21928 31.3497 8.44259 31.1338 7.69231H27.5308C27.58 8.20154 27.6154 8.71385 27.6154 9.23077C27.6122 10.2644 27.506 11.2951 27.2985 12.3077H31.1338C31.28 11.8015 31.3769 11.2846 31.4262 10.7615H31.4246ZM25.9862 10.7615L25.9954 10.6831C26.0479 10.2007 26.0751 9.71596 26.0769 9.23077C26.0666 8.71617 26.0276 8.20255 25.96 7.69231H20.04C19.9719 8.2025 19.9328 8.71615 19.9231 9.23077C19.9268 10.2666 20.0471 11.2987 20.2815 12.3077H25.7185C25.8369 11.7969 25.9262 11.2815 25.9862 10.7615ZM25.6908 6.15385C25.3283 4.52669 24.6742 2.97864 23.76 1.58462C23.5077 1.56308 23.2554 1.53846 23 1.53846C22.8397 1.53924 22.6796 1.54694 22.52 1.56154L22.24 1.58462L22.2308 1.6C21.3214 2.98994 20.6705 4.53263 20.3092 6.15385H25.6908ZM18.7015 6.15385C18.9966 4.71484 19.4971 3.32575 20.1877 2.02923C18.1477 2.75354 16.4607 4.22866 15.4708 6.15385H18.7015ZM14.8662 7.69231C14.6506 8.44266 14.5403 9.21931 14.5385 10C14.5403 10.7807 14.6506 11.5573 14.8662 12.3077H18.7015C18.493 11.2953 18.3868 10.2644 18.3846 9.23077C18.3846 8.71385 18.42 8.20154 18.4692 7.69231H14.8662ZM19.1031 13.8462H15.4723C16.0539 14.9821 16.8842 15.9723 17.9014 16.7429C18.9187 17.5135 20.0967 18.0447 21.3477 18.2969C20.3631 16.9449 19.6049 15.4417 19.1031 13.8462ZM23 17.9138C23.9838 16.6971 24.7527 15.3215 25.2738 13.8462H20.7262C21.2473 15.3215 22.0163 16.6971 23 17.9138ZM26.8969 13.8462C26.395 15.4416 25.6369 16.9449 24.6523 18.2969C25.9032 18.0445 27.0811 17.5132 28.0984 16.7426C29.1156 15.972 29.946 14.982 30.5277 13.8462H26.8969Z" fill="white"/>
<path fill-rule="evenodd" clip-rule="evenodd" d="M1 7L4 10L7 7L8 8L4 12L0 8L1 7Z" fill="white"/>
</svg>
