<svg width="18" height="16" viewBox="0 0 18 16" fill="none" xmlns="http://www.w3.org/2000/svg">
<path d="M12.8 2.4H15.2L14 4L12.8 2.4ZM1.6 0H16C16.4243 0 16.8313 0.168571 17.1314 0.468629C17.4314 0.768687 17.6 1.17565 17.6 1.6V4.8C17.6 5.688 16.888 6.4 16 6.4H12V14.4C12 15.288 11.288 16 10.4 16H1.6C1.17565 16 0.768687 15.8314 0.468629 15.5314C0.168571 15.2313 0 14.8243 0 14.4V1.6C0 0.72 0.72 0 1.6 0ZM1.6 1.6V4.8H10.4V1.6H1.6ZM16 4.8V1.6H12V4.8H16ZM1.6 14.4H10.4V6.4H1.6V14.4ZM3.2 8H8.8V9.6H3.2V8ZM3.2 11.2H8.8V12.8H3.2V11.2Z" fill="#AEAEAE"/>
</svg>
