<svg width="19" height="17" viewBox="0 0 19 17" fill="none" xmlns="http://www.w3.org/2000/svg">
<path id="listings" fill-rule="evenodd" clip-rule="evenodd" d="M3.42857 4.64286H15.5714C16.2155 4.64286 16.8332 4.89872 17.2887 5.35417C17.7441 5.80961 18 6.42733 18 7.07143V10.7143C18 11.3584 17.7441 11.9761 17.2887 12.4315C16.8332 12.887 16.2155 13.1429 15.5714 13.1429H3.42857C2.78447 13.1429 2.16676 12.887 1.71131 12.4315C1.25587 11.9761 1 11.3584 1 10.7143V7.07143C1 6.42733 1.25587 5.80961 1.71131 5.35417C2.16676 4.89872 2.78447 4.64286 3.42857 4.64286ZM3.42857 5.85714C3.10652 5.85714 2.79766 5.98508 2.56994 6.2128C2.34222 6.44052 2.21429 6.74938 2.21429 7.07143V10.7143C2.21429 11.0363 2.34222 11.3452 2.56994 11.5729C2.79766 11.8006 3.10652 11.9286 3.42857 11.9286H15.5714C15.8935 11.9286 16.2023 11.8006 16.4301 11.5729C16.6578 11.3452 16.7857 11.0363 16.7857 10.7143V7.07143C16.7857 6.74938 16.6578 6.44052 16.4301 6.2128C16.2023 5.98508 15.8935 5.85714 15.5714 5.85714H3.42857ZM1 1.60714C1 1.44612 1.06397 1.29169 1.17783 1.17783C1.29169 1.06397 1.44612 1 1.60714 1H17.3929C17.5539 1 17.7083 1.06397 17.8222 1.17783C17.936 1.29169 18 1.44612 18 1.60714C18 1.76817 17.936 1.9226 17.8222 2.03646C17.7083 2.15032 17.5539 2.21429 17.3929 2.21429H1.60714C1.44612 2.21429 1.29169 2.15032 1.17783 2.03646C1.06397 1.9226 1 1.76817 1 1.60714ZM1 16.1786C1 16.0175 1.06397 15.8631 1.17783 15.7493C1.29169 15.6354 1.44612 15.5714 1.60714 15.5714H17.3929C17.5539 15.5714 17.7083 15.6354 17.8222 15.7493C17.936 15.8631 18 16.0175 18 16.1786C18 16.3396 17.936 16.494 17.8222 16.6079C17.7083 16.7217 17.5539 16.7857 17.3929 16.7857H1.60714C1.44612 16.7857 1.29169 16.7217 1.17783 16.6079C1.06397 16.494 1 16.3396 1 16.1786Z" fill="#07439A" stroke="#07439A" stroke-width="0.3"/>
</svg>
