<svg width="18" height="16" viewBox="0 0 18 16" fill="none" xmlns="http://www.w3.org/2000/svg">
<path fill-rule="evenodd" clip-rule="evenodd" d="M8.57143 0C8.88702 0 9.14286 0.255837 9.14286 0.571429V1.14286H14.2857C14.5888 1.14286 14.8795 1.26327 15.0938 1.47759C15.3082 1.69192 15.4286 1.98261 15.4286 2.28571V5.71429C15.4286 6.01739 15.3082 6.30808 15.0938 6.52241C14.8795 6.73674 14.5888 6.85714 14.2857 6.85714H9.14286V8H14.0488C14.0489 8 14.0488 8 14.0488 8C14.199 7.99999 14.3478 8.02956 14.4865 8.08703C14.6251 8.14449 14.7511 8.2287 14.8573 8.33487C14.8573 8.33491 14.8572 8.33482 14.8573 8.33487L16.9755 10.4531C17.1986 10.6762 17.1986 11.038 16.9755 11.2612L14.8574 13.3793C14.8574 13.3793 14.8575 13.3792 14.8574 13.3793C14.7513 13.4855 14.6251 13.5698 14.4865 13.6273C14.3478 13.6847 14.1991 13.7143 14.0489 13.7143C14.0489 13.7143 14.049 13.7143 14.0489 13.7143H9.14286V15.4286C9.14286 15.7442 8.88702 16 8.57143 16C8.25584 16 8 15.7442 8 15.4286V13.7143H2.85714C2.55404 13.7143 2.26335 13.5939 2.04902 13.3796C1.83469 13.1652 1.71429 12.8745 1.71429 12.5714V9.14286C1.71429 8.83975 1.83469 8.54906 2.04902 8.33473C2.26335 8.12041 2.55404 8 2.85714 8H8V6.85714H3.09402C3.09399 6.85714 3.09405 6.85714 3.09402 6.85714C2.94388 6.85716 2.79511 6.82758 2.6564 6.77011C2.51771 6.71265 2.39171 6.62844 2.28558 6.52228C2.28554 6.52223 2.28563 6.52232 2.28558 6.52228L0.167368 4.40406C-0.0557892 4.1809 -0.0557892 3.8191 0.167368 3.59594L2.28545 1.47786C2.28549 1.47781 2.2854 1.4779 2.28545 1.47786C2.39158 1.37169 2.51771 1.28735 2.6564 1.22989C2.79511 1.17242 2.94378 1.14285 3.09393 1.14286C3.09396 1.14286 3.0939 1.14286 3.09393 1.14286H8V0.571429C8 0.255837 8.25584 0 8.57143 0ZM3.09393 2.28571L1.37955 4L3.0937 5.71415L14.2857 5.71429V2.28571H3.09393ZM2.85714 9.14286V12.5714H14.0489L15.7633 10.8571L14.0492 9.14299L2.85714 9.14286Z" fill="#AEAEAE"/>
</svg>
