<svg width="18" height="18" viewBox="0 0 18 18" fill="none" xmlns="http://www.w3.org/2000/svg">
<path d="M9 1C8.7605 1 8.56634 1.19416 8.56634 1.43366C8.56634 1.67316 8.7605 1.86728 9 1.86728C10.8108 1.86728 12.4658 2.54591 13.725 3.66172L12.7006 4.68613C11.6709 3.8 10.3728 3.31663 9 3.31663C7.58887 3.31663 6.29634 3.83378 5.30156 4.68825L3.97012 3.35687C3.96778 3.35453 3.96519 3.35253 3.96278 3.35025C3.96056 3.34794 3.95866 3.34544 3.95637 3.34313C3.78709 3.17378 3.51244 3.17378 3.34313 3.34313C1.83213 4.85413 1 6.86312 1 9C1 13.4112 4.58878 17 9 17C11.1369 17 13.1458 16.1679 14.6569 14.6569C16.1679 13.1459 17 11.1369 17 9C17 4.58878 13.4112 1 9 1ZM12.4076 5.59666C12.5768 5.76613 12.8514 5.76631 13.0208 5.597C13.0334 5.58444 13.0448 5.57113 13.0555 5.5575C13.0564 5.55659 13.0574 5.55584 13.0583 5.55494L14.3382 4.27503C15.3643 5.43297 16.0202 6.92566 16.1191 8.56634H15.6366C15.3971 8.56634 15.2029 8.7605 15.2029 9C15.2029 9.2395 15.3971 9.43366 15.6366 9.43366H16.1192C16.024 11.0319 15.4034 12.53 14.3407 13.7275L13.3117 12.6985C14.1662 11.7037 14.6833 10.4112 14.6833 9.00003C14.6833 8.76053 14.4891 8.56637 14.2496 8.56637C14.0101 8.56637 13.816 8.76053 13.816 9.00003C13.816 11.6556 11.6555 13.8161 8.99988 13.8161C6.34425 13.8161 4.18384 11.6556 4.18384 9C4.18384 6.34441 6.34431 4.18391 8.99994 4.18391C10.2875 4.18391 11.4977 4.68566 12.4076 5.59666ZM9 15.1612C8.7605 15.1612 8.56634 15.3554 8.56634 15.5949V16.1192C6.92566 16.0202 5.43294 15.3643 4.27503 14.3383L5.30156 13.3118C6.29634 14.1663 7.58884 14.6834 9 14.6834C10.4112 14.6834 11.7037 14.1662 12.6984 13.3118L13.7275 14.3408C12.53 15.4036 11.0319 16.0242 9.43363 16.1193V15.5949C9.43366 15.3553 9.2395 15.1612 9 15.1612ZM1.88087 9.43366H3.33306C3.42716 10.6752 3.92213 11.8065 4.68828 12.6984L3.66172 13.725C2.63569 12.5671 1.97978 11.0743 1.88087 9.43366ZM3.65925 4.2725L4.68828 5.30153C3.92213 6.19347 3.42719 7.32472 3.33306 8.56631H1.88069C1.97591 6.96809 2.59647 5.47003 3.65925 4.2725Z" fill="#AEAEAE"/>
<path d="M8.47291 8.68166C8.78525 8.41463 8.96931 8.01966 8.96931 7.60791C8.96931 6.82972 8.33622 6.19666 7.558 6.19666L6.40853 6.19678C6.26397 6.19678 6.14675 6.314 6.14675 6.45856V11.0287C6.14675 11.0843 6.19191 11.1295 6.24756 11.1295H6.72097C6.77666 11.1295 6.82178 11.0843 6.82178 11.0287V9.01931H7.55803L7.56497 9.01919C7.96712 9.02291 8.29428 9.35319 8.29428 9.75534V11.0286C8.29428 11.0843 8.33944 11.1294 8.39509 11.1294H8.8685C8.92419 11.1294 8.96931 11.0843 8.96931 11.0286V9.75534C8.96934 9.34372 8.78525 8.94869 8.47291 8.68166ZM7.56584 8.34416H6.82178V6.87184H7.55803L7.56537 6.87175C8.05978 6.87656 8.44078 7.37513 8.23931 7.89369C8.14225 8.14356 7.83387 8.34416 7.56584 8.34416Z" fill="#AEAEAE"/>
<path d="M10.6537 8.03681C10.4487 8.03681 10.2556 8.09128 10.0867 8.18706V8.07128C10.0867 8.01234 10.0389 7.96456 9.97994 7.96456H9.49347C9.43453 7.96456 9.38675 8.01234 9.38675 8.07128V11.6966C9.38675 11.7556 9.43453 11.8033 9.49347 11.8033H9.97994C10.0389 11.8033 10.0867 11.7556 10.0867 11.6966V10.4113C10.2556 10.5071 10.4487 10.5616 10.6537 10.5616C11.3151 10.5616 11.8532 9.99525 11.8532 9.29919C11.8532 8.60313 11.3151 8.03681 10.6537 8.03681ZM10.6537 9.92094C10.3455 9.92094 10.0947 9.642 10.0947 9.29919C10.0947 8.95634 10.3454 8.67744 10.6537 8.67744C10.9618 8.67744 11.2126 8.95634 11.2126 9.29919C11.2126 9.642 10.9619 9.92094 10.6537 9.92094Z" fill="#AEAEAE"/>
<path d="M9 1C8.7605 1 8.56634 1.19416 8.56634 1.43366C8.56634 1.67316 8.7605 1.86728 9 1.86728C10.8108 1.86728 12.4658 2.54591 13.725 3.66172L12.7006 4.68613C11.6709 3.8 10.3728 3.31663 9 3.31663C7.58887 3.31663 6.29634 3.83378 5.30156 4.68825L3.97012 3.35687C3.96778 3.35453 3.96519 3.35253 3.96278 3.35025C3.96056 3.34794 3.95866 3.34544 3.95637 3.34313C3.78709 3.17378 3.51244 3.17378 3.34313 3.34313C1.83213 4.85413 1 6.86312 1 9C1 13.4112 4.58878 17 9 17C11.1369 17 13.1458 16.1679 14.6569 14.6569C16.1679 13.1459 17 11.1369 17 9C17 4.58878 13.4112 1 9 1ZM12.4076 5.59666C12.5768 5.76613 12.8514 5.76631 13.0208 5.597C13.0334 5.58444 13.0448 5.57113 13.0555 5.5575C13.0564 5.55659 13.0574 5.55584 13.0583 5.55494L14.3382 4.27503C15.3643 5.43297 16.0202 6.92566 16.1191 8.56634H15.6366C15.3971 8.56634 15.2029 8.7605 15.2029 9C15.2029 9.2395 15.3971 9.43366 15.6366 9.43366H16.1192C16.024 11.0319 15.4034 12.53 14.3407 13.7275L13.3117 12.6985C14.1662 11.7037 14.6833 10.4112 14.6833 9.00003C14.6833 8.76053 14.4891 8.56637 14.2496 8.56637C14.0101 8.56637 13.816 8.76053 13.816 9.00003C13.816 11.6556 11.6555 13.8161 8.99988 13.8161C6.34425 13.8161 4.18384 11.6556 4.18384 9C4.18384 6.34441 6.34431 4.18391 8.99994 4.18391C10.2875 4.18391 11.4977 4.68566 12.4076 5.59666ZM9 15.1612C8.7605 15.1612 8.56634 15.3554 8.56634 15.5949V16.1192C6.92566 16.0202 5.43294 15.3643 4.27503 14.3383L5.30156 13.3118C6.29634 14.1663 7.58884 14.6834 9 14.6834C10.4112 14.6834 11.7037 14.1662 12.6984 13.3118L13.7275 14.3408C12.53 15.4036 11.0319 16.0242 9.43363 16.1193V15.5949C9.43366 15.3553 9.2395 15.1612 9 15.1612ZM1.88087 9.43366H3.33306C3.42716 10.6752 3.92213 11.8065 4.68828 12.6984L3.66172 13.725C2.63569 12.5671 1.97978 11.0743 1.88087 9.43366ZM3.65925 4.2725L4.68828 5.30153C3.92213 6.19347 3.42719 7.32472 3.33306 8.56631H1.88069C1.97591 6.96809 2.59647 5.47003 3.65925 4.2725Z" stroke="#AEAEAE" stroke-width="0.2"/>
<path d="M8.47291 8.68166C8.78525 8.41463 8.96931 8.01966 8.96931 7.60791C8.96931 6.82972 8.33622 6.19666 7.558 6.19666L6.40853 6.19678C6.26397 6.19678 6.14675 6.314 6.14675 6.45856V11.0287C6.14675 11.0843 6.19191 11.1295 6.24756 11.1295H6.72097C6.77666 11.1295 6.82178 11.0843 6.82178 11.0287V9.01931H7.55803L7.56497 9.01919C7.96712 9.02291 8.29428 9.35319 8.29428 9.75534V11.0286C8.29428 11.0843 8.33944 11.1294 8.39509 11.1294H8.8685C8.92419 11.1294 8.96931 11.0843 8.96931 11.0286V9.75534C8.96934 9.34372 8.78525 8.94869 8.47291 8.68166ZM7.56584 8.34416H6.82178V6.87184H7.55803L7.56537 6.87175C8.05978 6.87656 8.44078 7.37513 8.23931 7.89369C8.14225 8.14356 7.83387 8.34416 7.56584 8.34416Z" stroke="#AEAEAE" stroke-width="0.2"/>
<path d="M10.6537 8.03681C10.4487 8.03681 10.2556 8.09128 10.0867 8.18706V8.07128C10.0867 8.01234 10.0389 7.96456 9.97994 7.96456H9.49347C9.43453 7.96456 9.38675 8.01234 9.38675 8.07128V11.6966C9.38675 11.7556 9.43453 11.8033 9.49347 11.8033H9.97994C10.0389 11.8033 10.0867 11.7556 10.0867 11.6966V10.4113C10.2556 10.5071 10.4487 10.5616 10.6537 10.5616C11.3151 10.5616 11.8532 9.99525 11.8532 9.29919C11.8532 8.60313 11.3151 8.03681 10.6537 8.03681ZM10.6537 9.92094C10.3455 9.92094 10.0947 9.642 10.0947 9.29919C10.0947 8.95634 10.3454 8.67744 10.6537 8.67744C10.9618 8.67744 11.2126 8.95634 11.2126 9.29919C11.2126 9.642 10.9619 9.92094 10.6537 9.92094Z" stroke="#AEAEAE" stroke-width="0.2"/>
</svg>
