<svg width="13" height="16" viewBox="0 0 13 16" fill="none" xmlns="http://www.w3.org/2000/svg">
<path d="M6.22165 0C2.78937 0 0 2.78937 0 6.22165C0 8.31627 1.21322 10.0687 2.62346 11.2923C3.06935 11.676 3.84705 12.2878 4.5418 13.1899C5.30914 14.1957 6.00389 15.2741 6.22165 16C6.4394 15.2741 7.13415 14.1957 7.90149 13.1899C8.59624 12.2878 9.37395 11.676 9.81983 11.2923C11.2301 10.0687 12.4433 8.31627 12.4433 6.22165C12.4433 2.78937 9.65392 0 6.22165 0ZM6.22165 2.65457C6.69008 2.65457 7.15393 2.74683 7.58671 2.9261C8.01948 3.10536 8.41272 3.36811 8.74395 3.69934C9.07518 4.03058 9.33793 4.42381 9.51719 4.85659C9.69646 5.28936 9.78872 5.75321 9.78872 6.22165C9.78872 6.69008 9.69646 7.15393 9.51719 7.58671C9.33793 8.01949 9.07518 8.41272 8.74395 8.74395C8.41272 9.07518 8.01948 9.33793 7.58671 9.5172C7.15393 9.69646 6.69008 9.78872 6.22165 9.78872C5.2756 9.78872 4.3683 9.41291 3.69934 8.74395C3.03038 8.07499 2.65457 7.16769 2.65457 6.22165C2.65457 5.2756 3.03038 4.3683 3.69934 3.69934C4.3683 3.03039 5.2756 2.65457 6.22165 2.65457Z" fill="#07439A"/>
</svg>
