<svg width="17" height="18" viewBox="0 0 17 18" fill="none" xmlns="http://www.w3.org/2000/svg">
<path id="logout" fill-rule="evenodd" clip-rule="evenodd" d="M7.64918 6.8V0H9.34918V6.8H7.64918ZM13.227 2.28471C14.6831 3.25901 15.8025 4.65945 16.4321 6.29438C17.0618 7.92932 17.1708 9.71887 16.7443 11.4182C16.3179 13.1174 15.3767 14.6434 14.0497 15.7873C12.7227 16.9312 11.0746 17.6371 9.33105 17.8084C7.58746 17.9797 5.83354 17.608 4.30929 16.7442C2.78504 15.8805 1.56493 14.5668 0.815935 12.983C0.0669374 11.3992 -0.17436 9.62261 0.125064 7.89641C0.424488 6.1702 1.25 4.57869 2.48865 3.33965L2.48885 3.33945C2.88094 2.9475 3.31027 2.59467 3.77078 2.28596L4.71738 3.69803C4.34866 3.94521 4.00488 4.22772 3.69092 4.54154C3.69085 4.54161 3.69078 4.54168 3.69072 4.54175M3.69072 4.54175C2.69991 5.53294 2.03957 6.80607 1.80005 8.18695C1.56051 9.56791 1.75355 10.9892 2.35275 12.2562C2.95195 13.5232 3.92803 14.5742 5.14743 15.2652C6.36683 15.9562 7.76997 16.2536 9.16484 16.1165C10.5597 15.9795 11.8782 15.4148 12.9398 14.4997C14.0014 13.5846 14.7543 12.3638 15.0955 11.0043C15.4366 9.64492 15.3494 8.21328 14.8457 6.90533C14.342 5.59738 13.4464 4.47703 12.2816 3.69759L13.227 2.28471" fill="#07439A"/>
</svg>
