<svg width="17" height="15" viewBox="0 0 17 15" fill="none" xmlns="http://www.w3.org/2000/svg">
<path id="love" d="M12.4153 1.2C12.8573 1.19963 13.2949 1.28648 13.7024 1.45545C14.11 1.62442 14.4793 1.87211 14.7888 2.184C15.4264 2.82383 15.7838 3.68589 15.7838 4.584C15.7838 5.48211 15.4264 6.34417 14.7888 6.984L8.5 13.278L2.21121 6.984C1.57358 6.34417 1.21617 5.48211 1.21617 4.584C1.21617 3.68589 1.57358 2.82383 2.21121 2.184C2.52085 1.87233 2.89022 1.62477 3.29774 1.45578C3.70525 1.28678 4.14275 1.19974 4.58468 1.19974C5.02662 1.19974 5.46412 1.28678 5.87163 1.45578C6.27915 1.62477 6.64852 1.87233 6.95815 2.184L8.5 3.744L10.0358 2.196C10.3443 1.88039 10.714 1.62952 11.1229 1.45838C11.5317 1.28725 11.9713 1.19937 12.4153 1.2V1.2ZM12.4153 1.60971e-06C11.8117 -0.000504023 11.2141 0.118115 10.6574 0.348903C10.1008 0.579691 9.59641 0.918003 9.1738 1.344L8.5 2.016L7.8262 1.344C7.40307 0.918771 6.89854 0.581047 6.34202 0.350516C5.78549 0.119985 5.18811 0.00125846 4.58468 0.00125846C3.98126 0.00125846 3.38388 0.119985 2.82735 0.350516C2.27083 0.581047 1.7663 0.918771 1.34317 1.344C0.482332 2.21018 0 3.37582 0 4.59C0 5.80419 0.482332 6.96983 1.34317 7.836L8.5 15L15.6568 7.836C16.5177 6.96983 17 5.80419 17 4.59C17 3.37582 16.5177 2.21018 15.6568 1.344C15.2338 0.918544 14.7293 0.580587 14.1728 0.349838C13.6163 0.119089 13.0188 0.000165659 12.4153 1.60971e-06V1.60971e-06Z" fill="#07439A"/>
</svg>
