<svg width="42" height="42" viewBox="0 0 42 42" fill="none" xmlns="http://www.w3.org/2000/svg">
<g filter="url(#filter0_d)">
<circle cx="21" cy="18" r="12" fill="#F5665D"/>
</g>
<path d="M23.3031 14C22.9481 13.9997 22.5965 14.0709 22.2691 14.2093C21.9417 14.3478 21.6449 14.5508 21.3964 14.8064L21 15.2096L20.6036 14.8064C20.3547 14.5513 20.058 14.3486 19.7306 14.2103C19.4032 14.072 19.0518 14.0008 18.6969 14.0008C18.3419 14.0008 17.9905 14.072 17.6631 14.2103C17.3358 14.3486 17.039 14.5513 16.7901 14.8064C16.2837 15.3261 16 16.0255 16 16.754C16 17.4825 16.2837 18.1819 16.7901 18.7016L21 23L25.2099 18.7016C25.7163 18.1819 26 17.4825 26 16.754C26 16.0255 25.7163 15.3261 25.2099 14.8064C24.9611 14.5511 24.6643 14.3484 24.3369 14.2099C24.0096 14.0715 23.6581 14.0001 23.3031 14Z" fill="white"/>
<defs>
<filter id="filter0_d" x="0" y="0" width="42" height="42" filterUnits="userSpaceOnUse" color-interpolation-filters="sRGB">
<feFlood flood-opacity="0" result="BackgroundImageFix"/>
<feColorMatrix in="SourceAlpha" type="matrix" values="0 0 0 0 0 0 0 0 0 0 0 0 0 0 0 0 0 0 127 0"/>
<feMorphology radius="1" operator="erode" in="SourceAlpha" result="effect1_dropShadow"/>
<feOffset dy="3"/>
<feGaussianBlur stdDeviation="5"/>
<feColorMatrix type="matrix" values="0 0 0 0 0 0 0 0 0 0 0 0 0 0 0 0 0 0 0.1 0"/>
<feBlend mode="normal" in2="BackgroundImageFix" result="effect1_dropShadow"/>
<feBlend mode="normal" in="SourceGraphic" in2="effect1_dropShadow" result="shape"/>
</filter>
</defs>
</svg>
