<svg width="42" height="42" viewBox="0 0 42 42" fill="none" xmlns="http://www.w3.org/2000/svg">
<g filter="url(#filter0_d)">
<circle cx="21" cy="18" r="12" fill="white"/>
</g>
<path d="M23.3027 14.5L23.303 14.5C23.591 14.5001 23.8763 14.558 24.1422 14.6704C24.4081 14.7829 24.6493 14.9477 24.8519 15.1554C25.2668 15.5813 25.5 16.1553 25.5 16.754C25.5 17.3525 25.2669 17.9263 24.8522 18.3522C24.8521 18.3524 24.8519 18.3525 24.8518 18.3527L21 22.2854L17.1482 18.3527C17.1481 18.3525 17.1479 18.3524 17.1478 18.3522C16.7331 17.9263 16.5 17.3525 16.5 16.754C16.5 16.1553 16.7332 15.5813 17.1482 15.1553C17.3507 14.9478 17.592 14.7832 17.8578 14.6709C18.1236 14.5586 18.4089 14.5008 18.6969 14.5008C18.9849 14.5008 19.2701 14.5586 19.536 14.6709C19.8019 14.7832 20.0432 14.9479 20.2457 15.1556L20.2471 15.1569L20.6434 15.5601L21 15.9228L21.3566 15.5601L21.7529 15.1569L21.7529 15.1569L21.7548 15.155C21.957 14.9471 22.1981 14.7822 22.4638 14.6699C22.7296 14.5575 23.0148 14.4998 23.3027 14.5Z" fill="white" stroke="#CCCCCC"/>
<defs>
<filter id="filter0_d" x="0" y="0" width="42" height="42" filterUnits="userSpaceOnUse" color-interpolation-filters="sRGB">
<feFlood flood-opacity="0" result="BackgroundImageFix"/>
<feColorMatrix in="SourceAlpha" type="matrix" values="0 0 0 0 0 0 0 0 0 0 0 0 0 0 0 0 0 0 127 0"/>
<feMorphology radius="1" operator="erode" in="SourceAlpha" result="effect1_dropShadow"/>
<feOffset dy="3"/>
<feGaussianBlur stdDeviation="5"/>
<feColorMatrix type="matrix" values="0 0 0 0 0 0 0 0 0 0 0 0 0 0 0 0 0 0 0.1 0"/>
<feBlend mode="normal" in2="BackgroundImageFix" result="effect1_dropShadow"/>
<feBlend mode="normal" in="SourceGraphic" in2="effect1_dropShadow" result="shape"/>
</filter>
</defs>
</svg>
