<svg width="22" height="20" viewBox="0 0 22 20" fill="none" xmlns="http://www.w3.org/2000/svg">
<path fill-rule="evenodd" clip-rule="evenodd" d="M6.80386 0.131757C7.09416 -0.0341284 7.44816 -0.0439541 7.74721 0.105573L14.4685 3.46623L20.3039 0.131757C20.6134 -0.0451016 20.9936 -0.0438317 21.3019 0.13509C21.6102 0.314012 21.8 0.64353 21.8 1V15.4C21.8 15.7589 21.6077 16.0902 21.2961 16.2682L14.9961 19.8682C14.7058 20.0341 14.3518 20.044 14.0528 19.8944L7.33147 16.5338L1.49614 19.8682C1.18664 20.0451 0.806388 20.0438 0.498073 19.8649C0.189758 19.686 0 19.3565 0 19V4.6C0 4.24114 0.192286 3.9098 0.503861 3.73176L6.80386 0.131757ZM8.3 14.782L13.5 17.382V5.21803L8.3 2.61803V14.782ZM6.3 2.72318V14.8197L2 17.2768V5.18032L6.3 2.72318ZM15.5 5.18032V17.2768L19.8 14.8197V2.72318L15.5 5.18032Z" fill="#07439A"/>
</svg>
