<svg width="11" height="16" viewBox="0 0 11 16" fill="none" xmlns="http://www.w3.org/2000/svg">
<path d="M9.14286 0H1.14286C0.839752 0 0.549063 0.120408 0.334735 0.334735C0.120408 0.549062 0 0.839753 0 1.14286V14.8571C0 15.1602 0.120408 15.4509 0.334735 15.6653C0.549063 15.8796 0.839752 16 1.14286 16H9.14286C9.44596 16 9.73665 15.8796 9.95098 15.6653C10.1653 15.4509 10.2857 15.1602 10.2857 14.8571V1.14286C10.2857 0.839753 10.1653 0.549062 9.95098 0.334735C9.73665 0.120408 9.44596 0 9.14286 0ZM1.14286 1.14286H9.14286V11.4286H1.14286V1.14286ZM1.14286 14.8571V12.5714H9.14286V14.8571H1.14286Z" fill="#AEAEAE"/>
<path d="M4.57143 13.1429H5.71429V14.2857H4.57143V13.1429Z" fill="#AEAEAE"/>
</svg>
