<svg width="18" height="18" viewBox="0 0 18 18" fill="none" xmlns="http://www.w3.org/2000/svg">
<path fill-rule="evenodd" clip-rule="evenodd" d="M14.4677 1.5C14.2665 1.5 14.0672 1.53963 13.8813 1.61664C13.6954 1.69365 13.5265 1.80652 13.3842 1.94881L2.43263 12.9004C2.31204 13.0209 2.22981 13.1745 2.19635 13.3418L1.70602 15.794L4.15821 15.3037C4.32543 15.2702 4.47905 15.188 4.59963 15.0674L15.5512 4.11584C15.6935 3.97355 15.8064 3.80462 15.8834 3.61871C15.9604 3.43281 16 3.23355 16 3.03232C16 2.83109 15.9604 2.63183 15.8834 2.44593C15.8064 2.26002 15.6935 2.0911 15.5512 1.94881C15.4089 1.80652 15.24 1.69365 15.0541 1.61664C14.8682 1.53963 14.6689 1.5 14.4677 1.5ZM1.37199 11.8397L12.3235 0.888146C12.6051 0.606569 12.9394 0.38321 13.3073 0.230822C13.6752 0.0784332 14.0695 0 14.4677 0C14.8659 0 15.2602 0.0784332 15.6281 0.230822C15.996 0.38321 16.3303 0.606569 16.6119 0.888146C16.8934 1.16972 17.1168 1.504 17.2692 1.8719C17.4216 2.2398 17.5 2.63411 17.5 3.03232C17.5 3.43053 17.4216 3.82484 17.2692 4.19274C17.1168 4.56064 16.8934 4.89492 16.6119 5.1765L5.66034 16.128C5.33035 16.458 4.91004 16.683 4.45241 16.7745L0.897067 17.4854C0.651181 17.5346 0.396991 17.4576 0.219682 17.2803C0.0423727 17.103 -0.0345958 16.8488 0.0145702 16.6029L0.725469 13.0476C0.817004 12.59 1.04198 12.1697 1.37199 11.8397Z" fill="#AEAEAE"/>
<path fill-rule="evenodd" clip-rule="evenodd" d="M1.83353 11.3781C2.12642 11.0852 2.60129 11.0852 2.89419 11.3781L6.12188 14.6058C6.41477 14.8987 6.41477 15.3736 6.12188 15.6665C5.82898 15.9594 5.35411 15.9594 5.06122 15.6665L1.83353 12.4388C1.54063 12.1459 1.54063 11.671 1.83353 11.3781Z" fill="#AEAEAE"/>
<path fill-rule="evenodd" clip-rule="evenodd" d="M9.90275 3.30887C10.1956 3.01597 10.6705 3.01597 10.9634 3.30887L14.1911 6.53656C14.484 6.82945 14.484 7.30432 14.1911 7.59722C13.8982 7.89011 13.4233 7.89011 13.1304 7.59722L9.90275 4.36953C9.60986 4.07663 9.60986 3.60176 9.90275 3.30887Z" fill="#AEAEAE"/>
</svg>
