<svg width="16" height="16" viewBox="0 0 16 16" fill="none" xmlns="http://www.w3.org/2000/svg">
<path d="M7.57895 0C5.25726 0 3.36842 1.88884 3.36842 4.21053C3.36842 6.53221 5.25726 8.42105 7.57895 8.42105C9.90063 8.42105 11.7895 6.53221 11.7895 4.21053C11.7895 1.88884 9.90063 0 7.57895 0ZM7.57895 6.73684C6.18611 6.73684 5.05263 5.60337 5.05263 4.21053C5.05263 2.81768 6.18611 1.68421 7.57895 1.68421C8.97179 1.68421 10.1053 2.81768 10.1053 4.21053C10.1053 5.60337 8.97179 6.73684 7.57895 6.73684ZM15.1579 16V15.1579C15.1579 11.9082 12.5128 9.26316 9.26316 9.26316H5.89474C2.64421 9.26316 0 11.9082 0 15.1579V16H1.68421V15.1579C1.68421 12.8362 3.57305 10.9474 5.89474 10.9474H9.26316C11.5848 10.9474 13.4737 12.8362 13.4737 15.1579V16H15.1579Z" fill="#AEAEAE"/>
</svg>
