<svg width="16" height="16" viewBox="0 0 16 16" fill="none" xmlns="http://www.w3.org/2000/svg">
<path d="M7.40324 0.590732L7.00139 0.992591C5.9244 0.389803 4.63846 0.269245 3.48914 0.646992L3.42484 0.590732C2.64524 -0.196911 1.36733 -0.196911 0.587722 0.590732C-0.191884 1.37837 -0.199921 2.64825 0.587722 3.42785L0.643982 3.49215C0.266235 4.64147 0.386793 5.92741 0.989581 7.0044L0.587722 7.40625C0.474969 7.51764 0.385447 7.6503 0.324348 7.79654C0.263249 7.94278 0.231787 8.0997 0.231787 8.25819C0.231787 8.41669 0.263249 8.5736 0.324348 8.71985C0.385447 8.86609 0.474969 8.99875 0.587722 9.11013L1.72096 10.2514C2.19516 10.7176 2.95065 10.7176 3.42484 10.2514L3.70614 9.96207L9.39646 15.6444C9.86262 16.1185 10.6261 16.1185 11.1003 15.6444L15.6413 11.1034C16.1155 10.6292 16.1155 9.86563 15.6413 9.39143L9.95906 3.70915L10.2484 3.42785C10.7146 2.95366 10.7146 2.19817 10.2484 1.72397L9.10712 0.582695C8.88001 0.357993 8.573 0.232626 8.25352 0.234133C7.93404 0.23564 7.62822 0.363898 7.40324 0.590732ZM1.75311 4.00653C1.81741 3.73327 1.92993 3.46804 2.08264 3.21889L1.43966 2.57591C1.35337 2.49444 1.28968 2.39198 1.25481 2.27854C1.15032 2.00527 1.20658 1.66771 1.43966 1.44267C1.67274 1.21763 2.00226 1.15333 2.27553 1.25782C2.38805 1.28997 2.48449 1.35426 2.5729 1.44267L3.21588 2.08565C3.46503 1.93294 3.73026 1.82042 4.00352 1.75612C4.69472 1.55519 5.43414 1.60342 6.09318 1.89275L1.88974 6.09619C1.60041 5.43715 1.55218 4.69773 1.75311 4.00653ZM14.7894 10.2514L10.2484 14.7924L4.56612 9.11013L9.10712 4.56913L14.7894 10.2514ZM9.39646 2.57591L2.5729 9.39947L1.43966 8.25819L8.25518 1.44267L9.39646 2.57591ZM10.2484 7.68755L7.68455 10.2514L6.8326 9.39947L9.39646 6.83561L10.2484 7.68755ZM11.9523 9.39947L9.39646 11.9553L8.53648 11.1034L11.1003 8.53949L11.9523 9.39947Z" fill="#AEAEAE"/>
</svg>
