<svg width="16" height="16" viewBox="0 0 16 16" fill="none" xmlns="http://www.w3.org/2000/svg">
<path d="M11.2 0H8C5.352 0 3.2 2.152 3.2 4.8V8H0.8C0.36 8 0 8.36 0 8.8V15.2C0 15.64 0.36 16 0.8 16H10.4C10.84 16 11.2 15.64 11.2 15.2V13.6H14.4V15.2C14.4 15.64 14.76 16 15.2 16C15.64 16 16 15.64 16 15.2V4.8C16 2.152 13.848 0 11.2 0ZM14.4 12H11.2V8.8C11.2 8.36 10.84 8 10.4 8H4.8V4.8C4.8 3.032 6.232 1.6 8 1.6H11.2C12.968 1.6 14.4 3.032 14.4 4.8V12ZM9.296 11.152L6.392 12.808C5.904 13.088 5.296 13.088 4.808 12.808L1.904 11.152C1.81098 11.101 1.73356 11.0257 1.68002 10.9341C1.62647 10.8425 1.59882 10.7381 1.6 10.632C1.6 10.168 2.096 9.88 2.496 10.112L5.6 11.888L8.704 10.112C8.77235 10.0719 8.84799 10.0457 8.92654 10.035C9.00509 10.0243 9.08498 10.0294 9.16156 10.0498C9.23814 10.0703 9.3099 10.1058 9.37265 10.1542C9.43541 10.2026 9.48792 10.263 9.52714 10.3319C9.56635 10.4008 9.59149 10.4768 9.60109 10.5555C9.61069 10.6342 9.60455 10.714 9.58305 10.7903C9.56155 10.8666 9.5251 10.9379 9.47582 11C9.42654 11.062 9.36542 11.1137 9.296 11.152Z" fill="#AEAEAE"/>
<path d="M7.2 6.4H12C12.44 6.4 12.8 6.04 12.8 5.6C12.8 5.16 12.44 4.8 12 4.8H7.2C6.76 4.8 6.4 5.16 6.4 5.6C6.4 6.04 6.76 6.4 7.2 6.4Z" fill="#AEAEAE"/>
</svg>
