<svg width="19" height="18" viewBox="0 0 19 18" fill="none" xmlns="http://www.w3.org/2000/svg">
<path d="M8.50051 0L8.27875 0.198378L0.485318 7.99181L0 8.50193L0.486735 9.01204L6.86318 15.3885L7.3733 15.8745L7.88341 15.3878L15.6768 7.59435L15.8752 7.37117V0H8.50051ZM9.09848 1.41699H14.4561V6.77533L7.37117 13.8603L2.01283 8.50193L9.09777 1.41699H9.09848ZM16.5816 2.12548V3.54247H17.2901V9.32095L10.5594 16.0077L9.67378 15.1221L8.67764 16.1182L10.05 17.514L10.5601 18L11.049 17.5133L18.5087 10.1385L18.7071 9.91892V2.12548H16.5816ZM12.3306 2.83398C12.1427 2.83398 11.9625 2.90862 11.8296 3.04149C11.6968 3.17436 11.6221 3.35457 11.6221 3.54247C11.6221 3.73037 11.6968 3.91058 11.8296 4.04345C11.9625 4.17632 12.1427 4.25096 12.3306 4.25096C12.5185 4.25096 12.6987 4.17632 12.8316 4.04345C12.9645 3.91058 13.0391 3.73037 13.0391 3.54247C13.0391 3.35457 12.9645 3.17436 12.8316 3.04149C12.6987 2.90862 12.5185 2.83398 12.3306 2.83398Z" fill="#AEAEAE"/>
</svg>
