<svg width="18" height="18" viewBox="0 0 18 18" fill="none" xmlns="http://www.w3.org/2000/svg">
<path d="M5.84718 10.1558H5.3086C5.3086 10.2986 5.36535 10.4356 5.46635 10.5366C5.56735 10.6376 5.70434 10.6944 5.84718 10.6944V10.1558ZM10.1558 10.1558V10.6944C10.2986 10.6944 10.4356 10.6376 10.5366 10.5366C10.6376 10.4356 10.6944 10.2986 10.6944 10.1558H10.1558ZM10.1558 7.46291H10.6944C10.6945 7.39213 10.6807 7.32203 10.6537 7.2566C10.6267 7.19117 10.5871 7.1317 10.5371 7.08159L10.1558 7.46291ZM8.00148 5.3086L8.38279 4.92729C8.33276 4.87714 8.27333 4.83734 8.2079 4.81019C8.14247 4.78304 8.07232 4.76907 8.00148 4.76907C7.93064 4.76907 7.86049 4.78304 7.79506 4.81019C7.72963 4.83734 7.6702 4.87714 7.62017 4.92729L8.00148 5.3086ZM5.84718 7.46291L5.46587 7.08159C5.41589 7.1317 5.37627 7.19117 5.34929 7.2566C5.3223 7.32203 5.30848 7.39213 5.3086 7.46291H5.84718ZM17 16.2374L12.6914 11.9288L11.9288 12.6914L16.2374 17L17 16.2374ZM8.00148 13.9258C6.43025 13.9258 4.92337 13.3016 3.81235 12.1906C2.70132 11.0796 2.07715 9.57271 2.07715 8.00148H1C1 9.85839 1.73765 11.6392 3.05069 12.9523C4.36372 14.2653 6.14457 15.003 8.00148 15.003V13.9258ZM13.9258 8.00148C13.9258 9.57271 13.3016 11.0796 12.1906 12.1906C11.0796 13.3016 9.57271 13.9258 8.00148 13.9258V15.003C9.85839 15.003 11.6392 14.2653 12.9523 12.9523C14.2653 11.6392 15.003 9.85839 15.003 8.00148H13.9258ZM8.00148 2.07715C9.57271 2.07715 11.0796 2.70132 12.1906 3.81235C13.3016 4.92337 13.9258 6.43025 13.9258 8.00148H15.003C15.003 6.14457 14.2653 4.36372 12.9523 3.05069C11.6392 1.73765 9.85839 1 8.00148 1V2.07715ZM8.00148 1C6.14457 1 4.36372 1.73765 3.05069 3.05069C1.73765 4.36372 1 6.14457 1 8.00148H2.07715C2.07715 6.43025 2.70132 4.92337 3.81235 3.81235C4.92337 2.70132 6.43025 2.07715 8.00148 2.07715V1ZM5.84718 10.6944H10.1558V9.61721H5.84718V10.6944ZM10.6944 10.1558V7.46291H9.61721V10.1558H10.6944ZM10.5371 7.08159L8.38279 4.92729L7.62017 5.68992L9.77447 7.84422L10.5371 7.08159ZM7.62017 4.92729L5.46587 7.08159L6.22849 7.84422L8.38279 5.68992L7.62017 4.92729ZM5.3086 7.46291V10.1558H6.38575V7.46291H5.3086Z" fill="#AEAEAE"/>
<path d="M5.3086 10.1558H5.84718V10.6944M5.3086 10.1558C5.3086 10.2986 5.36535 10.4356 5.46635 10.5366C5.56735 10.6376 5.70434 10.6944 5.84718 10.6944M5.3086 10.1558V7.46291M5.3086 10.1558H6.38575V7.46291H5.3086M5.84718 10.6944H10.1558M5.84718 10.6944V9.61721H10.1558V10.6944M10.1558 10.6944V10.1558H10.6944M10.1558 10.6944C10.2986 10.6944 10.4356 10.6376 10.5366 10.5366C10.6376 10.4356 10.6944 10.2986 10.6944 10.1558M10.6944 10.1558V7.46291M10.6944 10.1558H9.61721V7.46291H10.6944M10.6944 7.46291H10.1558L10.5371 7.08159M10.6944 7.46291C10.6945 7.39213 10.6807 7.32203 10.6537 7.2566C10.6267 7.19117 10.5871 7.1317 10.5371 7.08159M10.5371 7.08159L8.38279 4.92729M10.5371 7.08159L9.77447 7.84422L7.62017 5.68992L8.38279 4.92729M8.38279 4.92729L8.00148 5.3086L7.62017 4.92729M8.38279 4.92729C8.33276 4.87714 8.27333 4.83734 8.2079 4.81019C8.14247 4.78304 8.07232 4.76907 8.00148 4.76907C7.93064 4.76907 7.86049 4.78304 7.79506 4.81019C7.72963 4.83734 7.6702 4.87714 7.62017 4.92729M7.62017 4.92729L5.46587 7.08159M7.62017 4.92729L8.38279 5.68992L6.22849 7.84422L5.46587 7.08159M5.46587 7.08159L5.84718 7.46291H5.3086M5.46587 7.08159C5.41589 7.1317 5.37627 7.19117 5.34929 7.2566C5.3223 7.32203 5.30848 7.39213 5.3086 7.46291M8.00148 13.9258C6.43025 13.9258 4.92337 13.3016 3.81235 12.1906C2.70132 11.0796 2.07715 9.57271 2.07715 8.00148M8.00148 13.9258V15.003M8.00148 13.9258C9.57271 13.9258 11.0796 13.3016 12.1906 12.1906C13.3016 11.0796 13.9258 9.57271 13.9258 8.00148M2.07715 8.00148H1M2.07715 8.00148C2.07715 6.43025 2.70132 4.92337 3.81235 3.81235C4.92337 2.70132 6.43025 2.07715 8.00148 2.07715M1 8.00148C1 9.85839 1.73765 11.6392 3.05069 12.9523C4.36372 14.2653 6.14457 15.003 8.00148 15.003M1 8.00148C1 6.14457 1.73765 4.36372 3.05069 3.05069C4.36372 1.73765 6.14457 1 8.00148 1M8.00148 15.003C9.85839 15.003 11.6392 14.2653 12.9523 12.9523C14.2653 11.6392 15.003 9.85839 15.003 8.00148M13.9258 8.00148H15.003M13.9258 8.00148C13.9258 6.43025 13.3016 4.92337 12.1906 3.81235C11.0796 2.70132 9.57271 2.07715 8.00148 2.07715M15.003 8.00148C15.003 6.14457 14.2653 4.36372 12.9523 3.05069C11.6392 1.73765 9.85839 1 8.00148 1M8.00148 2.07715V1M17 16.2374L12.6914 11.9288L11.9288 12.6914L16.2374 17L17 16.2374Z" stroke="#AEAEAE" stroke-width="0.3"/>
</svg>
