<svg width="16" height="15" viewBox="0 0 16 15" fill="none" xmlns="http://www.w3.org/2000/svg">
<g id="resources">
<path d="M8 9.23077H16V10.3846H8V9.23077Z" fill="#07439A"/>
<path d="M8 11.5385H16V12.6923H8V11.5385Z" fill="#07439A"/>
<path d="M8 13.8462H12V15H8V13.8462Z" fill="#07439A"/>
<path d="M6.85714 12.6923H1.14286V1.15385H5.24L7.19429 3.12115L7.52571 3.46154H14.8571V8.07692H16V3.46154C16 3.15552 15.8796 2.86203 15.6653 2.64565C15.4509 2.42926 15.1602 2.30769 14.8571 2.30769H8L6.05143 0.340385C5.94511 0.232403 5.81867 0.146734 5.67941 0.0883138C5.54015 0.0298941 5.39081 -0.000120284 5.24 3.62269e-07H1.14286C0.839753 3.62269e-07 0.549062 0.121566 0.334735 0.337954C0.120408 0.554342 0 0.847828 0 1.15385V12.6923C0 12.9983 0.120408 13.2918 0.334735 13.5082C0.549062 13.7246 0.839753 13.8462 1.14286 13.8462H6.85714V12.6923Z" fill="#07439A"/>
</g>
</svg>
