<svg width="18" height="18" viewBox="0 0 18 18" fill="none" xmlns="http://www.w3.org/2000/svg">
<path d="M7.24846 5.61932e-08C8.61847 -0.00017049 9.96049 0.387867 11.119 1.11915C12.2775 1.85043 13.2051 2.89502 13.7943 4.13188C14.3835 5.36873 14.6101 6.74722 14.448 8.1076C14.2858 9.46799 13.7415 10.7546 12.8781 11.8183L17.7778 16.718C17.9124 16.8517 17.9913 17.0313 17.9987 17.2208C18.0061 17.4103 17.9414 17.5955 17.8177 17.7393C17.694 17.883 17.5204 17.9745 17.332 17.9954C17.1435 18.0163 16.9541 17.9651 16.8019 17.8519L16.7179 17.7789L11.8172 12.8792C10.9161 13.6103 9.85273 14.1144 8.71639 14.3492C7.58005 14.584 6.40396 14.5425 5.28695 14.2284C4.16994 13.9143 3.14465 13.3366 2.29725 12.544C1.44984 11.7513 0.805084 10.7668 0.417154 9.67327C0.0292248 8.5797 -0.0905405 7.40899 0.0679235 6.25952C0.226387 5.11005 0.658451 4.01541 1.3278 3.06759C1.99715 2.11978 2.88424 1.34647 3.9145 0.812676C4.94477 0.278877 6.08812 0.000178059 7.24846 5.61932e-08V5.61932e-08ZM7.24846 1.49991C6.4934 1.49991 5.74574 1.64863 5.04816 1.93758C4.35058 2.22652 3.71674 2.65004 3.18284 3.18395C2.64893 3.71785 2.22541 4.35169 1.93647 5.04927C1.64752 5.74685 1.4988 6.49451 1.4988 7.24957C1.4988 8.00462 1.64752 8.75229 1.93647 9.44987C2.22541 10.1474 2.64893 10.7813 3.18284 11.3152C3.71674 11.8491 4.35058 12.2726 5.04816 12.5616C5.74574 12.8505 6.4934 12.9992 7.24846 12.9992C8.77336 12.9992 10.2358 12.3935 11.3141 11.3152C12.3923 10.2369 12.9981 8.77447 12.9981 7.24957C12.9981 5.72466 12.3923 4.26222 11.3141 3.18395C10.2358 2.10568 8.77336 1.49991 7.24846 1.49991V1.49991Z" fill="#AEAEAE"/>
</svg>
