<svg width="15" height="16" viewBox="0 0 15 16" fill="none" xmlns="http://www.w3.org/2000/svg">
<path d="M12.2449 11.102C11.6633 11.102 11.1265 11.3061 10.7061 11.6469L6.47755 8.58776C6.54836 8.19912 6.54836 7.80088 6.47755 7.41225L10.7061 4.35306C11.1265 4.69388 11.6633 4.89796 12.2449 4.89796C13.5959 4.89796 14.6939 3.8 14.6939 2.44898C14.6939 1.09796 13.5959 0 12.2449 0C10.8939 0 9.79592 1.09796 9.79592 2.44898C9.79592 2.68571 9.82857 2.91224 9.89184 3.12857L5.87551 6.03673C5.27959 5.24694 4.33265 4.73469 3.26531 4.73469C1.46122 4.73469 0 6.19592 0 8C0 9.80408 1.46122 11.2653 3.26531 11.2653C4.33265 11.2653 5.27959 10.7531 5.87551 9.96327L9.89184 12.8714C9.82857 13.0878 9.79592 13.3163 9.79592 13.551C9.79592 14.902 10.8939 16 12.2449 16C13.5959 16 14.6939 14.902 14.6939 13.551C14.6939 12.2 13.5959 11.102 12.2449 11.102ZM12.2449 1.38776C12.8306 1.38776 13.3061 1.86327 13.3061 2.44898C13.3061 3.03469 12.8306 3.5102 12.2449 3.5102C11.6592 3.5102 11.1837 3.03469 11.1837 2.44898C11.1837 1.86327 11.6592 1.38776 12.2449 1.38776ZM3.26531 9.79592C2.27551 9.79592 1.46939 8.9898 1.46939 8C1.46939 7.0102 2.27551 6.20408 3.26531 6.20408C4.2551 6.20408 5.06122 7.0102 5.06122 8C5.06122 8.9898 4.2551 9.79592 3.26531 9.79592ZM12.2449 14.6122C11.6592 14.6122 11.1837 14.1367 11.1837 13.551C11.1837 12.9653 11.6592 12.4898 12.2449 12.4898C12.8306 12.4898 13.3061 12.9653 13.3061 13.551C13.3061 14.1367 12.8306 14.6122 12.2449 14.6122Z" fill="#CCCCCC"/>
</svg>
