<svg width="16" height="20" viewBox="0 0 16 20" fill="none" xmlns="http://www.w3.org/2000/svg">
<path id="signin" d="M8 0C9.06087 0 10.0783 0.421427 10.8284 1.17157C11.5786 1.92172 12 2.93913 12 4V6H13.75C14.0455 6 14.3381 6.0582 14.611 6.17127C14.884 6.28434 15.1321 6.45008 15.341 6.65901C15.5499 6.86794 15.7157 7.11598 15.8287 7.38896C15.9418 7.66195 16 7.95453 16 8.25V17.75C16 18.0455 15.9418 18.3381 15.8287 18.611C15.7157 18.884 15.5499 19.1321 15.341 19.341C15.1321 19.5499 14.884 19.7157 14.611 19.8287C14.3381 19.9418 14.0455 20 13.75 20H2.25C1.65326 20 1.08097 19.7629 0.65901 19.341C0.237053 18.919 0 18.3467 0 17.75V8.25C0 7.65326 0.237053 7.08097 0.65901 6.65901C1.08097 6.23705 1.65326 6 2.25 6H4V4C4 2.93913 4.42143 1.92172 5.17157 1.17157C5.92172 0.421427 6.93913 0 8 0ZM13.75 7.5H2.25C2.05109 7.5 1.86032 7.57902 1.71967 7.71967C1.57902 7.86032 1.5 8.05109 1.5 8.25V17.75C1.5 18.164 1.836 18.5 2.25 18.5H13.75C13.9489 18.5 14.1397 18.421 14.2803 18.2803C14.421 18.1397 14.5 17.9489 14.5 17.75V8.25C14.5 8.05109 14.421 7.86032 14.2803 7.71967C14.1397 7.57902 13.9489 7.5 13.75 7.5ZM8 11.5C8.39782 11.5 8.77936 11.658 9.06066 11.9393C9.34196 12.2206 9.5 12.6022 9.5 13C9.5 13.3978 9.34196 13.7794 9.06066 14.0607C8.77936 14.342 8.39782 14.5 8 14.5C7.60218 14.5 7.22064 14.342 6.93934 14.0607C6.65804 13.7794 6.5 13.3978 6.5 13C6.5 12.6022 6.65804 12.2206 6.93934 11.9393C7.22064 11.658 7.60218 11.5 8 11.5ZM8 1.5C7.33696 1.5 6.70107 1.76339 6.23223 2.23223C5.76339 2.70107 5.5 3.33696 5.5 4V6H10.5V4C10.5 3.33696 10.2366 2.70107 9.76777 2.23223C9.29893 1.76339 8.66304 1.5 8 1.5Z" fill="#07439A"/>
</svg>
