<svg width="23" height="27" viewBox="0 0 23 27" fill="none" xmlns="http://www.w3.org/2000/svg">
<g id="size">
<path d="M2.28183 3.09357H15.8982V3.97599H17.1088V1H15.8982V1.88296H2.28183V1H1.0704V3.97599H2.28183V3.09357Z" fill="#07439A"/>
<path d="M22 6.91133V5.70045H19.0235V6.91133H19.9064V25.564H19.0235V26.7749H22V25.564H21.1173V6.91133H22Z" fill="#07439A"/>
<path d="M1 26.7749H17.1795V5.70045H1V26.7749ZM2.31195 7.01267H15.8676V25.4635H2.31195V7.01267Z" fill="#07439A"/>
<path d="M2.28183 3.09357H15.8982V3.97599H17.1088V1H15.8982V1.88296H2.28183V1H1.0704V3.97599H2.28183V3.09357Z" stroke="#07439A" stroke-width="0.35"/>
<path d="M22 6.91133V5.70045H19.0235V6.91133H19.9064V25.564H19.0235V26.7749H22V25.564H21.1173V6.91133H22Z" stroke="#07439A" stroke-width="0.35"/>
<path d="M1 26.7749H17.1795V5.70045H1V26.7749ZM2.31195 7.01267H15.8676V25.4635H2.31195V7.01267Z" stroke="#07439A" stroke-width="0.35"/>
</g>
</svg>
