<svg width="40" height="24" viewBox="0 0 40 24" fill="none" xmlns="http://www.w3.org/2000/svg">
<path id="sofa" d="M37.1576 10.6082H36.7633V4.12384C36.7633 1.84997 34.904 0 32.6188 0H7.38106C5.09586 0 3.23656 1.84997 3.23656 4.12384V10.6082H2.84215C1.27504 10.6082 0 11.8769 0 13.4363V17.6262C0 19.1855 1.27504 20.4542 2.84228 20.4542H6.35617V23.1156C6.35617 23.604 6.75414 24 7.24506 24C7.73598 24 8.13394 23.604 8.13394 23.1156V20.4542H31.8661V23.1156C31.8661 23.604 32.264 24 32.7549 24C33.2459 24 33.6438 23.604 33.6438 23.1156V20.4542H37.1577C38.725 20.4542 40 19.1855 40 17.6262V13.4363C39.9999 11.8769 38.7248 10.6082 37.1576 10.6082ZM5.01433 4.12384C5.01433 2.82537 6.07592 1.76886 7.38106 1.76886H32.6188C33.9238 1.76886 34.9855 2.82525 34.9855 4.12384V10.6082H33.846V8.83216C33.846 7.69959 32.92 6.77827 31.7819 6.77827H22.6703C21.5319 6.77827 20.6058 7.69959 20.6058 8.83216V10.6082H19.394V8.83216C19.394 7.69959 18.4679 6.77827 17.3295 6.77827H8.21801C7.07985 6.77827 6.15389 7.69959 6.15389 8.83216V10.6082H5.01433V4.12384V4.12384ZM22.3835 10.6082V8.83216C22.3835 8.67764 22.5148 8.54713 22.6703 8.54713H31.7819C31.9372 8.54713 32.0682 8.67764 32.0682 8.83216V10.6082H22.3835ZM7.93166 10.6082V8.83216C7.93166 8.67764 8.0627 8.54713 8.21801 8.54713H17.3296C17.485 8.54713 17.6163 8.67764 17.6163 8.83216V10.6082H7.93166ZM38.2221 17.6262C38.2221 18.2101 37.7445 18.6853 37.1576 18.6853H2.84228C2.25536 18.6853 1.77777 18.2101 1.77777 17.6262V13.4363C1.77777 12.8523 2.25536 12.3771 2.84228 12.3771H37.1576C37.7445 12.3771 38.2221 12.8523 38.2221 13.4363V17.6262Z" fill="#07439A"/>
</svg>
