<svg width="28" height="20" viewBox="0 0 28 20" fill="none" xmlns="http://www.w3.org/2000/svg">
<path d="M13.75 0C11.1493 0 8.88839 1.238 7.27375 3.063C7.14018 3.046 7.02036 3 6.875 3C4.71429 3 2.94643 4.8 2.94643 7C1.24732 8.055 0 9.836 0 12C0 15.3 2.65179 18 5.89286 18H10.8036V16H5.89286C3.71348 16 1.96429 14.219 1.96429 12C1.9641 11.2139 2.19102 10.4451 2.61678 9.78934C3.04254 9.13358 3.64834 8.61981 4.35875 8.312L5.03348 8.032L4.94116 7.282C4.92152 7.116 4.91071 7.022 4.91071 7C4.90858 6.69697 4.97466 6.39747 5.10387 6.12448C5.23308 5.85148 5.42199 5.61226 5.65611 5.42515C5.89023 5.23804 6.16333 5.10802 6.45446 5.04507C6.7456 4.98212 7.04703 4.98791 7.33562 5.062L7.94946 5.219L8.31777 4.719C8.95984 3.87423 9.78307 3.19009 10.7246 2.71884C11.6661 2.24759 12.7009 2.00172 13.75 2C16.9685 2 19.6546 4.254 20.4099 7.281L20.5946 8.062L21.4225 8.032C21.6297 8.02 21.6759 8 21.6071 8C23.7865 8 25.5357 9.781 25.5357 12C25.5357 14.219 23.7865 16 21.6071 16H16.6964V18H21.6071C24.8482 18 27.5 15.3 27.5 12C27.5 8.844 25.0564 6.316 22.0059 6.094C20.8057 2.574 17.6059 0 13.75 0ZM13.75 8L9.82143 12H12.7679V20H14.7321V12H17.6786L13.75 8Z" fill="white"/>
</svg>
