<svg width="17" height="16" viewBox="0 0 17 16" fill="none" xmlns="http://www.w3.org/2000/svg">
<path d="M8.0457 12.6998C8.09302 12.7156 8.12456 12.7471 8.14033 12.7944C8.1561 12.8417 8.14822 12.889 8.11667 12.9364L6.1531 14.8999C5.83767 15.2154 5.47492 15.4677 5.06486 15.657C4.65479 15.8462 4.23684 15.9566 3.81101 15.9882C3.38517 16.0197 2.95934 15.9882 2.5335 15.8935C2.10767 15.7989 1.72126 15.6018 1.37429 15.3021C0.948451 14.9709 0.617246 14.5687 0.380671 14.0956C0.144096 13.6224 0.0179224 13.1493 0.00215068 12.6761C-0.013621 12.203 0.0573515 11.7219 0.215068 11.233C0.372785 10.7441 0.640903 10.3183 1.01942 9.95551L4.07124 6.90369C4.56016 6.41477 5.12794 6.05202 5.77458 5.81544C6.42122 5.57887 7.08363 5.51578 7.76181 5.62618C8.36114 5.72081 8.83428 5.8943 9.18126 6.14665C9.52824 6.399 9.80424 6.69077 10.0093 7.02198C10.0408 7.10084 10.0369 7.15998 9.99745 7.19941C9.95802 7.23884 9.91464 7.27432 9.86733 7.30587C9.82001 7.33741 9.76481 7.38473 9.70173 7.44781L9.53612 7.61341C9.37841 7.7869 9.18915 7.87365 8.96834 7.87365C8.74754 7.87365 8.54645 7.78296 8.36508 7.60159C8.1837 7.42021 7.98261 7.28221 7.76181 7.18758C7.54101 7.09295 7.29655 7.05352 7.02843 7.06929C6.76031 7.08506 6.52374 7.12449 6.3187 7.18758C6.11367 7.25067 5.90075 7.39261 5.67995 7.61341L2.17864 11.1147C1.97361 11.3198 1.82378 11.5563 1.72915 11.8245C1.63452 12.0926 1.60298 12.3607 1.63452 12.6288C1.66606 12.8969 1.74492 13.165 1.87109 13.4332C1.99727 13.7013 2.2023 13.9142 2.48619 14.0719C2.88048 14.34 3.30632 14.4347 3.76369 14.3558C4.22107 14.2769 4.60748 14.0877 4.92291 13.788L6.43699 12.2976C6.46853 12.2503 6.51585 12.2424 6.57894 12.2739C7.05209 12.479 7.54101 12.6209 8.0457 12.6998ZM14.6225 0.729081C15.0483 1.06029 15.3795 1.45458 15.6161 1.91196C15.8527 2.36933 15.9867 2.84248 16.0183 3.33141C16.0498 3.82033 15.9789 4.30925 15.8054 4.79817C15.6319 5.28709 15.3559 5.71293 14.9773 6.07568L11.9255 9.12749C11.4366 9.61642 10.8688 9.97128 10.2222 10.1921C9.57555 10.4129 8.90526 10.476 8.2113 10.3813C7.61198 10.3025 7.14672 10.129 6.81551 9.86088C6.48431 9.59276 6.2083 9.30098 5.9875 8.98555C5.95596 8.92246 5.96384 8.86726 6.01116 8.81995L6.43699 8.39411C6.61048 8.2364 6.80763 8.15754 7.02843 8.15754C7.24923 8.15754 7.43849 8.2364 7.59621 8.39411C7.78547 8.58337 7.99839 8.72532 8.23496 8.81995C8.47154 8.91458 8.716 8.96189 8.96834 8.96189C9.22069 8.96189 9.46515 8.91458 9.70173 8.81995C9.9383 8.72532 10.1433 8.58337 10.3168 8.39411L13.8181 4.91646C14.0232 4.71143 14.173 4.46697 14.2676 4.18308C14.3623 3.89919 14.3938 3.62318 14.3623 3.35506C14.3307 3.08695 14.244 2.82671 14.102 2.57437C13.9601 2.32202 13.755 2.1091 13.4869 1.93561C13.1084 1.68327 12.6905 1.58864 12.2331 1.65172C11.7757 1.71481 11.3814 1.91196 11.0502 2.24316L9.55978 3.73358C9.51247 3.7809 9.46515 3.78878 9.41784 3.75724C8.97623 3.56798 8.48731 3.41815 7.95107 3.30775C7.88798 3.30775 7.85644 3.27621 7.85644 3.21312C7.85644 3.15003 7.86433 3.1106 7.8801 3.09483L9.84367 1.13126C10.1591 0.815825 10.5219 0.563479 10.9319 0.374219C11.342 0.184959 11.752 0.0666711 12.1621 0.0193561C12.5722 -0.0279589 12.998 0.0114703 13.4396 0.137644C13.8812 0.263817 14.2755 0.460963 14.6225 0.729081Z" fill="#AEAEAE"/>
</svg>
